<svg width="850" height="941" viewBox="0 0 850 941" fill="none" xmlns="http://www.w3.org/2000/svg">
<g clip-path="url(#clip0_1_3)">
<path d="M787.024 743.429C788.709 745.202 790.528 742.985 792.967 743.872C783.476 749.948 773.719 754.294 764.051 758.906C758.995 761.301 753.496 762.632 748.839 765.869C745.203 770.216 739.969 771.856 734.958 773.497C711.586 781.125 687.46 785.339 663.112 788.354C640.05 791.237 616.9 792.257 593.705 791.592C581.376 791.237 569.091 790.173 556.895 788.576C545.143 783.964 532.503 783.077 520.351 780.194C496.314 774.517 472.897 766.889 449.969 757.798C413.114 743.207 378.699 724.003 346.546 700.853C332.132 690.475 318.916 678.59 305.39 667.059C294.968 658.145 285.699 648.122 275.942 638.587C273.503 636.192 270.531 634.595 267.782 632.644C266.584 631.845 265.697 630.825 264.943 629.628C263.746 626.391 261.44 624.084 258.867 621.911C258.468 621.556 258.158 621.157 257.847 620.714C247.248 605.103 234.963 590.822 223.876 575.566C221.703 572.55 219.529 569.49 216.735 567.14C226.137 591.31 237.58 614.372 250.352 636.857C277.671 684.932 311.599 727.818 352.178 765.293C393.956 803.877 441.099 834.256 493.431 856.652C511.88 864.547 530.729 871.199 549.932 877.009C552.505 877.763 555.653 877.984 556.496 881.444C544.034 890.047 530.862 897.498 517.69 904.993C501.769 914.04 486.557 924.374 469.66 931.559C444.913 942.025 419.146 943.489 394.044 934.973C376.304 928.986 359.851 919.274 343.885 909.118C337.587 905.126 331.201 901.312 324.859 897.365C320.823 892.93 315.679 889.826 311.022 886.145C297.451 875.323 286.63 861.886 275.365 848.891C257.049 827.781 240.995 805.03 227.113 780.726C203.608 739.57 187.199 695.93 178.373 649.275C172.164 616.501 170.523 583.505 172.12 550.376C173.85 514.231 180.724 478.796 190.924 444.026C195.98 426.818 202.144 410.01 208.841 392.448C196.911 398.967 186.622 406.373 176.644 414.179C139.878 442.828 110.031 477.51 86.4813 517.646C66.258 552.105 52.1106 589.048 42.7528 627.854C37.1205 651.138 33.0403 674.687 31.3994 698.636C31.1333 702.538 30.2463 706.397 30.2907 710.344C30.2907 712.251 29.8915 714.114 27.9401 715.089C25.2348 716.065 24.0374 714.424 22.5739 712.473C7.67249 692.249 0.0887437 669.631 1.15313 644.308C3.1932 640.848 2.43926 636.946 2.61666 633.309C3.76974 610.602 10.1117 589.093 17.6511 567.938C32.9073 525.318 55.082 486.38 82.4899 450.412C101.117 425.931 121.872 403.269 144.535 382.513C174.737 354.928 207.821 331.334 244.01 311.82C285.255 289.557 328.718 273.946 374.53 264.988C403.446 259.355 432.894 258.557 462.298 259.932C471.789 260.375 481.279 261.528 490.77 263.081C481.989 257.093 472.543 252.304 463.229 247.336C425.444 227.158 385.884 211.192 345.038 198.641C318.074 190.348 290.533 184.05 262.327 180.901C239.841 178.418 217.312 176.555 194.649 176.599C161.387 176.688 128.658 180.857 96.2825 188.086C83.6873 190.924 71.0034 193.452 59.4282 199.528C57.2551 200.681 54.8159 201.346 52.8645 198.863C67.6328 190.614 82.3568 182.32 97.1695 174.16C99.6087 172.83 102.225 171.898 104.798 170.789C122.227 162.585 141.253 161.343 159.88 158.815C184.893 155.4 210.127 153.493 235.407 154.025C302.685 155.489 367.08 169.015 427.75 199.173C463.007 216.735 495.782 237.846 525.54 263.48C548.646 283.393 569.978 305.212 589.359 328.939C615.614 361.137 638.276 395.596 657.524 432.362C660.983 439.014 662.934 446.243 665.64 453.073C667.369 448.727 665.507 444.469 664.886 440.478C661.781 421.275 660.761 401.85 657.701 382.691C654.996 365.705 653.222 348.586 650.029 331.645C642.223 290.444 629.096 250.973 612.11 212.655C594.326 172.563 571.752 135.354 545.542 100.318C530.507 80.2281 515.384 60.1378 496.757 43.152C484.073 31.5768 472.543 18.6268 457.907 9.26907C455.912 8.02729 453.738 6.38636 455.512 3.37061C470.059 6.12027 482.92 12.817 495.338 20.5782C499.285 23.0617 503.232 25.5453 507.179 28.0289C523.899 40.491 537.869 55.9689 552.46 70.6929C578.316 96.726 599.604 126.218 618.009 157.884C632.245 182.365 645.239 207.511 654.286 234.298C664.221 263.657 672.869 293.415 677.171 324.371C681.206 353.376 682.226 382.469 681.384 411.651C680.807 430.721 677.791 449.57 674.155 468.285C673.844 469.926 673.357 471.567 672.248 472.942C669.676 475.869 666.527 475.026 663.422 474.228C656.681 470.281 652.069 463.939 647.057 458.262C636.236 445.977 623.951 435.333 611.667 424.69C591.709 407.305 570.156 392.093 546.739 379.719C516.005 363.443 483.674 352.533 448.727 349.65C407.216 346.191 368.543 355.859 331.379 373.422C300.334 388.101 272.616 407.704 247.026 430.455C229.508 446.022 213.276 462.83 198.153 480.747C193.009 486.867 193.053 486.956 199.173 494.229C217.8 516.36 238.289 536.494 260.597 554.899C287.65 577.251 317.098 595.523 349.784 608.429C371.825 617.122 394.665 622.222 418.392 624.35C434.624 625.814 450.457 623.33 466.467 622.532C472.942 624.217 479.062 621.911 485.182 620.581C530.019 610.602 568.958 588.96 604.526 560.532C623.109 545.719 640.361 529.487 656.77 512.324C658.633 510.417 660.14 507.623 663.511 507.978C665.595 509.929 664.886 512.191 663.821 514.187C656.193 528.6 650.783 544.078 642.401 558.092C629.939 578.937 616.279 598.938 601.378 617.21C613.707 607.365 626.745 597.297 639.208 586.476C647.678 579.114 655.927 571.486 664.309 563.991C707.639 525.274 744.271 480.925 773.941 430.987C802.014 383.799 822.725 333.64 833.591 279.578C835.187 271.684 837.272 263.923 838.868 256.029C839.179 254.388 839.489 252.658 841.263 251.86C843.348 249.643 843.481 251.771 843.88 253.058C845.964 259.799 846.541 266.85 848.004 273.68C850.089 283.614 848.359 293.548 848.936 303.483C848.714 323.706 843.924 343.131 837.981 362.29C831.285 383.755 822.415 404.422 812.436 424.601C801.349 446.953 788.354 468.152 773.719 488.375C762.41 503.986 750.303 518.932 737.22 533.168C728.705 542.393 720.056 551.484 711.009 560.177C681.739 588.294 649.497 612.509 614.328 632.865C574.724 655.883 532.858 673.357 488.287 683.867C470.857 687.992 453.029 690.919 434.934 690.387C429.479 690.254 424.157 691.673 418.702 691.584C402.071 691.318 385.44 690.431 367.523 688.08C382.868 696.196 396.927 703.825 411.518 710.566C434.846 721.343 458.972 730.079 483.275 738.195C509.53 746.932 536.361 753.895 563.858 757.709C584.791 760.636 605.812 762.632 626.923 763.474C653.311 764.583 679.521 763.607 705.687 759.439C731.232 755.403 756.378 749.682 781.347 743.118C783.299 742.586 785.294 741.699 787.157 743.384L787.024 743.429Z" fill="url(#paint0_radial_1_3)"/>
<path d="M393.822 928.277C389.564 924.817 385.351 921.181 381.138 917.633C372.224 910.138 363.62 902.243 355.371 894.039C322.242 861.176 294.435 823.08 273.014 781.658C251.239 739.57 238.2 692.959 228.887 646.436C225.339 628.608 212.256 584.037 212.877 563.503C213.01 558.625 226.935 583.549 230.04 586.964C233.144 590.379 240.418 590.689 243.3 594.503C254.432 609.183 265.564 623.818 277.006 638.187C280.997 643.199 285.964 647.456 290.488 652.024C294.036 655.617 297.673 659.165 301.265 662.713C314.392 675.751 328.895 687.149 342.909 699.123C355.105 709.545 368.543 718.149 381.848 726.842C394.798 735.268 408.856 742.054 422.605 749.238C446.199 761.612 471.123 770.748 496.491 778.642C516.714 784.939 537.558 788.842 558.491 792.213C583.416 796.249 608.473 796.47 633.53 795.539C648.343 795.007 663.067 792.656 677.747 789.862C695.619 786.447 712.96 781.569 729.946 775.271C732.829 774.207 735.49 772.699 738.638 772.699C727.684 780.416 715.976 786.891 704.445 793.721C680.718 807.824 657.08 822.148 633.043 835.631C607.808 849.778 582.928 864.502 558.136 879.359C533.434 894.172 508.776 909.029 483.629 923.088C460.834 935.816 434.801 939.497 409.344 934.042C403.889 932.889 398.213 931.958 393.955 928.41C393.911 928.365 393.822 928.321 393.778 928.277H393.822Z" fill="url(#paint1_linear_1_3)"/>
<path d="M52.8203 198.951C54.1064 198.818 55.6143 199.129 56.6343 198.552C73.8862 188.574 93.4443 186.312 112.426 182.409C146.841 175.357 181.7 172.918 216.736 174.515C273.37 177.087 328.186 188.529 381.36 208.486C420.033 223.033 457.242 240.418 492.943 261.173C493.609 261.528 494.318 261.839 494.895 262.282C496.004 263.169 497.999 263.79 497.157 265.608C496.403 267.294 494.496 266.584 493.076 266.407C487.888 265.741 482.699 264.988 477.554 264.145C458.218 260.952 438.704 261.44 419.279 262.327C373.732 264.367 330.27 275.986 288.36 293.415C243.877 311.953 202.854 336.39 165.778 367.435C120.01 405.752 81.1595 449.924 51.1794 501.636C28.162 541.328 11.4867 583.372 4.52381 629.007C3.72552 634.196 4.83426 639.828 1.02021 644.352C-1.10856 563.814 0.48802 483.275 0.000176549 402.737C-0.177221 368.632 -0.22157 334.527 0.133225 300.467C0.266273 287.428 0.532369 274.257 4.43511 261.528C12.7284 234.653 29.0047 213.986 52.6872 198.951H52.8203Z" fill="url(#paint2_linear_1_3)"/>
<path d="M787.024 743.428C768.264 749.992 748.839 754.072 729.37 757.709C704.933 762.321 680.497 765.692 655.439 766.002C602.53 766.712 550.819 760.636 499.995 745.646C465.979 735.623 433.027 723.116 400.829 708.392C389.609 703.248 378.965 696.95 368.1 691.007C365.705 689.721 363.266 688.258 361.359 684.799C377.014 687.46 392.004 688.568 406.994 689.012C456.931 690.431 504.607 680.275 550.775 661.338C591.931 644.441 630.16 622.576 665.506 595.789C694.511 573.836 720.633 548.646 744.493 521.149C770.26 491.435 792.301 459.238 809.775 424.024C827.648 388.013 841.973 350.715 846.718 310.401C846.984 308.051 847.25 305.523 848.802 303.527C850.443 305.257 849.911 307.385 849.911 309.381C849.911 421.541 850.089 533.745 849.822 645.904C849.734 681.029 835.409 709.9 809.021 733.095C802.546 738.772 794.519 740.413 786.979 743.384L787.024 743.428Z" fill="url(#paint3_linear_1_3)"/>
<path d="M841.086 251.904C839.267 269.467 834.433 286.408 830.176 303.394C820.995 340.293 806.582 375.196 788.842 408.768C770.526 443.494 748.528 475.78 723.427 505.938C706.042 526.826 687.282 546.429 667.014 564.523C645.372 583.815 624.04 603.462 600.313 620.27C598.805 621.335 597.208 622.31 595.346 623.463C594.37 620.891 596.188 619.827 597.253 618.541C616.5 594.104 634.905 569.091 648.565 540.929C653.222 531.35 656.681 521.194 662.358 512.102C662.979 511.082 662.801 509.574 663.023 508.333C661.958 505.317 663.821 503.277 665.639 501.503C668.034 499.152 669.808 496.314 671.937 493.742C673.445 491.923 675.529 489.573 673.001 486.867C672.691 486.424 672.425 485.936 672.203 485.404C670.518 481.235 667.28 477.155 670.961 472.498C673.09 458.484 675.662 444.514 677.303 430.411C679.964 407.704 679.61 384.908 678.279 362.113C677.303 345.127 675.263 328.274 672.558 311.51C669.542 292.617 663.865 274.39 658.455 256.118C641.07 197.31 611.356 145.022 573.082 97.5243C555.254 75.3496 534.809 55.4811 513.699 36.4108C511.126 34.1047 507.312 32.4638 507.002 28.1619C519.198 33.129 530.019 40.6684 541.328 47.2321C616.633 90.9606 692.293 134.024 767.066 178.595C777.666 184.937 788.31 191.279 798.776 197.798C810.795 205.338 819.31 216.336 827.249 227.69C832.57 235.318 838.513 242.724 841.086 251.949V251.904Z" fill="url(#paint4_linear_1_3)"/>
<path d="M27.9402 715.178C31.0447 650.206 46.3896 588.383 76.5915 530.596C97.4357 490.681 125.021 455.912 158.505 425.931C173.007 412.937 188.662 401.362 205.559 391.516C207.644 390.319 209.861 389.299 213.232 387.569C209.95 396.483 207.112 404.289 204.185 412.006C192.255 443.627 184.183 476.268 178.772 509.574C174.027 538.712 172.918 568.071 174.471 597.386C176.688 639.651 185.602 680.674 200.903 720.234C219.175 767.51 245.208 810.086 278.026 848.581C292.129 865.123 307.031 880.823 323.839 894.704C324.682 895.414 325.746 896.079 324.859 897.454C247.203 849.867 169.548 802.28 91.892 754.649C70.5156 741.566 49.2279 728.35 27.8959 715.178H27.9402Z" fill="url(#paint5_linear_1_3)"/>
<path d="M664.22 454.448C653.266 425.976 637.478 400.076 620.492 374.974C567.583 296.697 500.571 234.564 413.735 195.226C374.575 177.486 333.64 166.177 291.021 160.589C232.08 152.872 173.716 156.731 115.707 168.616C112.071 169.37 108.656 171.189 104.753 170.834C112.958 164.58 122.138 159.924 130.964 154.779C190.347 120.054 249.776 85.3725 309.204 50.647C313.55 49.1834 317.763 49.1834 322.287 50.4696C377.369 66.524 427.35 92.7345 473.075 127.15C494.939 143.603 515.34 161.831 534.011 181.832C581.731 233.012 617.166 291.819 641.558 357.323C650.162 380.473 658.011 403.934 663.023 428.149C664.753 436.531 666.393 444.957 667.236 453.517C667.325 454.581 667.724 456.045 666.393 456.444C664.886 456.887 665.285 454.758 664.265 454.359L664.22 454.448Z" fill="url(#paint6_linear_1_3)"/>
<path d="M556.54 785.915C561.684 788.221 567.228 787.334 572.55 787.733C631.801 792.301 689.943 786.536 746.4 767.155C747.286 766.845 748.04 766.357 748.883 765.958C749.46 765.958 750.214 765.692 750.524 765.958C752.209 767.466 749.992 767.555 749.548 767.821C740.324 773.542 731.055 779.218 721.697 784.718C668.788 815.851 615.835 846.896 562.882 877.984C560.797 879.226 558.669 880.379 556.54 881.577C520.218 871.288 485.315 857.451 452.053 839.578C421.141 822.947 392.359 803.167 365.616 780.372C322.198 743.429 285.964 700.321 256.25 651.758C239.619 624.572 225.206 596.277 214.03 566.341C213.586 565.144 211.679 563.547 213.941 562.261C214.163 562.128 215.05 563.104 215.626 563.547C228.798 580.711 241.393 598.317 255.097 615.081C256.605 616.944 258.512 618.541 259.665 620.758C261.484 623.73 264.677 625.548 266.318 628.652C267.072 629.406 267.826 630.205 268.535 630.959C347.167 714.868 441.276 770.038 556.496 785.96L556.54 785.915Z" fill="url(#paint7_linear_1_3)"/>
<path d="M664.22 454.448C669.054 456.311 666.438 452.452 666.216 451.477C663.777 440.345 661.426 429.169 658.455 418.17C647.235 376.304 632.378 335.769 612.332 297.23C594.193 262.415 572.639 229.907 547.005 200.149C505.849 152.384 457.464 113.801 401.406 84.8404C375.196 71.3138 348.009 60.4039 319.714 52.1992C316.3 51.2236 312.84 50.2922 309.248 50.647C328.496 39.4266 347.921 28.5167 366.947 16.9415C394.088 0.399183 423.182 -3.23747 453.916 2.61665C454.448 2.70535 454.891 3.19319 455.335 3.45929C455.335 4.65672 455.823 5.58806 456.843 6.29765C486.601 27.0532 511.082 53.1306 533.656 81.2037C561.241 115.486 585.145 152.163 604.704 191.456C628.253 238.777 645.461 288.404 653.798 340.736C658.189 368.366 662.579 396.084 664.575 424.069C665.285 434.136 666.926 444.115 668.079 454.138C668.3 456 670.208 458.883 667.458 459.415C664.62 459.947 664.841 456.488 664.22 454.448Z" fill="url(#paint8_linear_1_3)"/>
<path d="M466.511 624.572C405.309 633.974 350.139 617.299 298.693 585.323C257.759 559.866 222.989 527.403 192.654 490.105C191.456 488.641 189.416 487.621 191.811 484.694C234.032 433.116 283.171 390.363 345.393 364.507C409.921 337.72 473.563 341.446 536.051 371.736C582.928 394.443 621.956 427.262 656.859 465.402C658.988 467.753 661.205 470.015 663.378 472.321C669.543 474.893 670.74 481.501 674.599 485.936L674.51 485.803C676.195 489.972 673.046 492.411 670.962 494.983C658.455 510.373 644.929 524.742 630.293 538.224C613.086 554.101 594.991 568.781 575.478 581.686C543.99 602.486 509.929 617.299 472.72 624.35C470.636 624.75 468.64 624.617 466.6 624.661L466.511 624.572Z" fill="white"/>
<path d="M556.54 785.915C538.357 784.94 520.662 780.992 503.011 776.824C470.237 769.062 438.926 757.265 409.034 741.876C374.22 724.003 342.333 701.873 313.018 675.884C298.738 663.2 285.344 649.585 272.128 635.837C270.709 634.373 268.979 633.087 268.536 630.914C277.095 636.192 283.26 644.13 290.4 650.916C326.412 685.109 365.572 714.734 410.143 737.264C443.76 754.25 478.574 767.643 514.896 777.045C527.359 780.283 540.176 782.234 552.815 784.762C554.101 785.028 555.432 784.94 556.496 785.915H556.54Z" fill="#452899"/>
<path d="M466.511 624.572C521.238 614.904 567.761 588.782 609.848 553.569C632.555 534.543 653.355 513.654 671.893 490.504C673.046 489.085 674.687 487.887 674.421 485.714C677.925 488.553 675.973 491.435 674.155 493.919C670.651 498.842 666.749 503.498 663.023 508.288C650.694 522.391 637.123 535.252 623.065 547.537C604.349 563.902 584.436 578.715 562.882 591.31C534.854 607.719 505.051 619.117 473.075 624.882C470.857 625.282 468.596 625.459 466.467 624.528L466.511 624.572Z" fill="#2A2A32"/>
<path d="M259.666 620.714C249.554 611.179 241.615 599.781 233.278 588.782C227.069 580.622 220.594 572.595 215.671 563.503C221.17 567.583 224.408 573.526 228.488 578.759C238.289 591.399 247.957 604.127 257.67 616.811C258.557 618.008 259.621 619.073 259.71 620.669L259.666 620.714Z" fill="#452899"/>
<path d="M674.554 485.892C670.385 481.678 666.704 477.11 663.334 472.276C665.906 472.942 668.434 474.05 671.051 472.498C670.385 477.465 672.647 481.634 674.599 485.892H674.554Z" fill="#33313F"/>
<path d="M266.318 628.608C263.613 626.391 260.775 624.262 259.666 620.714C262.504 622.843 265.387 624.883 266.318 628.608Z" fill="#452899"/>
<path d="M475.957 394.709C468.418 398.656 462.608 403.047 458.794 409.433C447.441 428.415 460.391 455.867 483.009 461.056C498.93 464.693 513.92 457.065 520.75 441.941C521.415 440.478 521.194 437.95 523.101 437.817C525.23 437.684 525.629 440.212 526.471 441.764C557.072 498.62 523.234 570.377 459.193 584.525C394.754 598.761 334.084 548.735 336.213 482.832C337.676 438.704 373.067 394.266 422.605 387.747C440.611 385.396 457.952 387.037 475.913 394.665L475.957 394.709Z" fill="url(#paint9_radial_1_3)"/>
</g>
<defs>
<radialGradient id="paint0_radial_1_3" cx="0" cy="0" r="1" gradientUnits="userSpaceOnUse" gradientTransform="translate(441.553 478.807) scale(440.544 440.544)">
<stop offset="0.02" stop-color="#361A86"/>
<stop offset="0.11" stop-color="#31177E"/>
<stop offset="0.36" stop-color="#27126D"/>
<stop offset="0.64" stop-color="#200F64"/>
<stop offset="1" stop-color="#1F0F61"/>
</radialGradient>
<linearGradient id="paint1_linear_1_3" x1="212.877" y1="749.682" x2="738.638" y2="749.682" gradientUnits="userSpaceOnUse">
<stop offset="0.02" stop-color="#391E89"/>
<stop offset="0.53" stop-color="#482A9B"/>
<stop offset="1" stop-color="#5333A9"/>
</linearGradient>
<linearGradient id="paint2_linear_1_3" x1="109.366" y1="620.492" x2="279.002" y2="192.121" gradientUnits="userSpaceOnUse">
<stop offset="0.02" stop-color="#6848C1"/>
<stop offset="0.03" stop-color="#6747C0"/>
<stop offset="0.66" stop-color="#482A9E"/>
<stop offset="1" stop-color="#3D2091"/>
</linearGradient>
<linearGradient id="paint3_linear_1_3" x1="466.688" y1="568.071" x2="1069.88" y2="499.551" gradientUnits="userSpaceOnUse">
<stop offset="0.02" stop-color="#3A208E"/>
<stop offset="0.62" stop-color="#5538AA"/>
<stop offset="1" stop-color="#6243B8"/>
</linearGradient>
<linearGradient id="paint4_linear_1_3" x1="562.172" y1="96.726" x2="685.552" y2="365.749" gradientUnits="userSpaceOnUse">
<stop offset="0.02" stop-color="#6140B7"/>
<stop offset="0.53" stop-color="#4F2EA4"/>
<stop offset="1" stop-color="#432397"/>
</linearGradient>
<linearGradient id="paint5_linear_1_3" x1="27.9402" y1="642.489" x2="325.214" y2="642.489" gradientUnits="userSpaceOnUse">
<stop offset="0.02" stop-color="#5433AB"/>
<stop offset="0.55" stop-color="#422596"/>
<stop offset="1" stop-color="#371D89"/>
</linearGradient>
<linearGradient id="paint6_linear_1_3" x1="513.255" y1="259.621" x2="119.122" y2="74.5513" gradientUnits="userSpaceOnUse">
<stop offset="0.02" stop-color="#48289F"/>
<stop offset="0.12" stop-color="#4D2EA4"/>
<stop offset="0.69" stop-color="#6C50C3"/>
<stop offset="1" stop-color="#785ECF"/>
</linearGradient>
<linearGradient id="paint7_linear_1_3" x1="307.873" y1="570.422" x2="647.146" y2="845.432" gradientUnits="userSpaceOnUse">
<stop offset="0.02" stop-color="#48289F"/>
<stop offset="0.12" stop-color="#4D2EA4"/>
<stop offset="0.69" stop-color="#6C50C3"/>
<stop offset="1" stop-color="#785ECF"/>
</linearGradient>
<linearGradient id="paint8_linear_1_3" x1="309.204" y1="229.73" x2="668.966" y2="229.73" gradientUnits="userSpaceOnUse">
<stop offset="0.02" stop-color="#5433AB"/>
<stop offset="0.55" stop-color="#422596"/>
<stop offset="1" stop-color="#371D89"/>
</linearGradient>
<radialGradient id="paint9_radial_1_3" cx="0" cy="0" r="1" gradientUnits="userSpaceOnUse" gradientTransform="translate(436.361 486.035) scale(100.262 100.262)">
<stop offset="0.02" stop-color="#361A86"/>
<stop offset="0.11" stop-color="#31177E"/>
<stop offset="0.36" stop-color="#27126D"/>
<stop offset="0.64" stop-color="#200F64"/>
<stop offset="1" stop-color="#1F0F61"/>
</radialGradient>
<clipPath id="clip0_1_3">
<rect width="850" height="940.606" fill="white"/>
</clipPath>
</defs>
</svg>
