<svg width="1685" height="418" viewBox="0 0 1685 418" fill="none" xmlns="http://www.w3.org/2000/svg">
<g clip-path="url(#clip0_1_125)">
<path d="M349.678 330.269C350.402 331.074 351.208 330.108 352.335 330.511C348.147 333.168 343.799 335.182 339.45 337.195C337.195 338.242 334.779 338.886 332.685 340.336C331.074 342.269 328.739 342.994 326.484 343.718C316.095 347.101 305.384 348.953 294.592 350.322C284.365 351.611 274.056 352.094 263.748 351.772C258.272 351.611 252.795 351.127 247.4 350.403C242.165 348.389 236.608 347.987 231.132 346.698C220.421 344.202 210.032 340.819 199.885 336.792C183.536 330.35 168.235 321.813 153.98 311.505C147.618 306.914 141.739 301.599 135.699 296.445C131.109 292.499 126.921 288.069 122.653 283.801C121.606 282.754 120.237 282.029 119.029 281.144C118.546 280.821 118.062 280.338 117.74 279.774C117.176 278.325 116.21 277.278 115.002 276.312C114.841 276.15 114.68 275.989 114.519 275.748C109.848 268.822 104.372 262.46 99.459 255.695C98.4926 254.326 97.5262 253.037 96.3182 251.99C100.506 262.701 105.58 273.01 111.217 282.996C123.378 304.337 138.437 323.424 156.477 340.094C175 357.248 196.019 370.778 219.213 380.683C227.427 384.227 235.803 387.126 244.339 389.703C245.467 390.025 246.916 390.106 247.239 391.636C241.682 395.421 235.883 398.803 230.004 402.105C222.917 406.132 216.153 410.722 208.663 413.944C197.71 418.615 186.194 419.259 175.08 415.474C167.188 412.816 159.859 408.468 152.772 403.958C149.954 402.186 147.135 400.495 144.316 398.723C142.545 396.71 140.209 395.421 138.196 393.73C132.156 388.898 127.324 382.938 122.331 377.22C114.197 367.878 107.029 357.731 100.909 346.94C90.4392 328.659 83.1912 309.25 79.245 288.553C76.5069 273.976 75.7821 259.319 76.5069 244.581C77.3122 228.555 80.292 212.77 84.8824 197.308C87.1373 189.657 89.8755 182.167 92.8552 174.356C87.54 177.255 82.9496 180.557 78.5202 184.02C62.1719 196.744 48.8838 212.126 38.4949 230.005C29.4751 245.306 23.1935 261.735 19.0863 278.969C16.5897 289.358 14.7374 299.747 14.0126 310.377C13.9321 312.149 13.5294 313.84 13.5294 315.612C13.5294 316.417 13.3684 317.303 12.4825 317.706C11.2745 318.109 10.7107 317.384 10.0665 316.498C3.38216 307.559 -0.000264108 297.492 0.482939 286.298C1.36881 284.768 1.04668 282.996 1.12721 281.385C1.61041 271.318 4.4291 261.735 7.81152 252.312C14.5764 233.387 24.4015 216.072 36.6426 200.127C44.9376 189.254 54.1185 179.188 64.1852 169.926C77.6343 157.685 92.2915 147.216 108.398 138.518C126.76 128.612 146.008 121.687 166.383 117.74C179.268 115.244 192.315 114.922 205.361 115.485C209.549 115.647 213.817 116.21 218.005 116.855C214.139 114.197 209.871 112.103 205.764 109.848C189.013 100.909 171.376 93.7413 153.256 88.1845C141.256 84.4799 129.015 81.6613 116.532 80.2922C106.546 79.1647 96.5598 78.3594 86.4931 78.3594C71.7554 78.3594 57.1788 80.2117 42.7632 83.433C37.2064 84.7215 31.569 85.849 26.4148 88.5066C25.4484 88.9898 24.4015 89.312 23.5156 88.1845C30.0389 84.5605 36.6426 80.8559 43.1659 77.2319C44.2128 76.6682 45.4208 76.2655 46.5483 75.7018C54.2795 72.0777 62.7356 71.514 71.0306 70.3865C82.1442 68.8564 93.3384 68.051 104.613 68.2926C134.491 68.9369 163.081 74.977 190.06 88.3456C205.683 96.1574 220.26 105.499 233.467 116.935C243.776 125.794 253.198 135.458 261.815 146.008C273.493 160.343 283.559 175.644 292.096 191.993C293.626 194.972 294.512 198.194 295.72 201.173C296.525 199.241 295.72 197.308 295.398 195.617C294.029 187.08 293.546 178.463 292.176 169.926C290.968 162.356 290.163 154.786 288.794 147.216C285.331 128.935 279.533 111.378 271.962 94.3051C264.07 76.5071 254.003 59.9977 242.407 44.3741C235.722 35.4349 229.038 26.4956 220.743 19.006C215.106 13.8518 209.951 8.13389 203.509 3.94613C202.623 3.38239 201.656 2.65759 202.462 1.36905C208.904 2.57706 214.622 5.55681 220.179 9.01976C221.951 10.1472 223.723 11.1942 225.414 12.3216C232.823 17.8785 239.024 24.7239 245.547 31.2471C257.064 42.844 266.486 55.8904 274.701 69.9839C280.982 80.8559 286.781 92.0501 290.807 103.969C295.237 117.016 299.102 130.223 300.955 143.994C302.726 156.88 303.21 169.846 302.807 182.731C302.565 191.187 301.196 199.563 299.586 207.858C299.424 208.583 299.263 209.307 298.78 209.952C297.653 211.24 296.203 210.838 294.834 210.515C291.854 208.744 289.76 205.925 287.586 203.428C282.754 197.952 277.278 193.281 271.882 188.53C263.023 180.798 253.44 174.034 243.051 168.557C229.36 161.309 215.025 156.477 199.482 155.189C181.04 153.659 163.886 157.927 147.377 165.739C133.605 172.262 121.284 180.959 109.928 191.107C102.117 198.033 94.9491 205.522 88.1843 213.415C85.9293 216.153 85.9293 216.153 88.6675 219.374C96.9625 229.199 106.063 238.138 115.968 246.353C127.968 256.259 141.095 264.393 155.591 270.11C165.416 273.976 175.563 276.231 186.033 277.197C193.281 277.842 200.287 276.714 207.374 276.392C210.274 277.117 212.931 276.15 215.669 275.506C235.561 271.077 252.876 261.493 268.661 248.849C276.875 242.246 284.606 235.078 291.854 227.427C292.66 226.542 293.304 225.334 294.834 225.495C295.72 226.381 295.478 227.347 294.995 228.233C291.613 234.595 289.197 241.521 285.492 247.722C279.935 256.983 273.895 265.842 267.292 273.976C272.768 269.627 278.566 265.117 284.123 260.366C287.908 257.064 291.532 253.682 295.317 250.38C314.565 233.145 330.833 213.495 344.04 191.268C356.523 170.329 365.704 148.021 370.536 124.022C371.261 120.479 372.147 117.096 372.871 113.553C373.032 112.828 373.113 112.023 373.918 111.7C374.804 110.734 374.885 111.7 375.126 112.264C376.093 115.244 376.334 118.385 376.979 121.445C377.945 125.874 377.14 130.304 377.381 134.653C377.301 143.672 375.126 152.289 372.549 160.745C369.569 170.248 365.623 179.51 361.194 188.449C356.281 198.355 350.483 207.777 343.96 216.797C338.967 223.723 333.571 230.407 327.772 236.689C323.987 240.796 320.122 244.823 316.095 248.688C303.049 261.171 288.794 271.963 273.17 280.982C255.534 291.21 237.011 298.942 217.199 303.612C209.468 305.465 201.576 306.753 193.523 306.512C191.107 306.512 188.771 307.075 186.355 307.075C178.946 306.995 171.617 306.592 163.644 305.545C170.49 309.169 176.691 312.552 183.214 315.531C193.603 320.283 204.314 324.229 215.106 327.773C226.783 331.638 238.702 334.699 250.943 336.47C260.285 337.759 269.546 338.645 278.969 339.047C290.727 339.531 302.324 339.047 314.001 337.276C325.356 335.504 336.551 332.927 347.584 330.028C348.47 329.786 349.355 329.383 350.161 330.108L349.678 330.269Z" fill="url(#paint0_radial_1_125)"/>
<path d="M174.999 412.414C173.147 410.884 171.214 409.273 169.362 407.662C165.416 404.36 161.55 400.817 157.926 397.193C143.188 382.616 130.867 365.704 121.364 347.262C111.7 328.578 105.901 307.881 101.794 287.184C100.183 279.291 94.3849 259.48 94.707 250.38C94.707 248.205 100.989 259.319 102.358 260.769C103.727 262.218 106.948 262.46 108.237 264.151C113.149 270.674 118.142 277.197 123.216 283.56C124.988 285.815 127.162 287.667 129.175 289.68C130.786 291.291 132.397 292.821 133.927 294.432C139.725 300.23 146.168 305.304 152.45 310.619C157.846 315.209 163.805 319.075 169.765 322.941C175.482 326.726 181.764 329.705 187.885 332.927C198.354 338.403 209.468 342.51 220.742 345.973C229.762 348.792 238.943 350.483 248.285 352.013C259.399 353.785 270.512 353.866 281.626 353.463C288.23 353.221 294.753 352.174 301.276 350.966C309.249 349.436 316.9 347.262 324.47 344.443C325.759 343.96 326.967 343.316 328.336 343.316C323.504 346.779 318.269 349.597 313.115 352.658C302.565 358.939 292.095 365.301 281.384 371.261C270.19 377.543 259.157 384.066 248.124 390.67C237.171 397.273 226.219 403.877 215.025 410.078C204.877 415.716 193.361 417.326 182.006 414.91C179.59 414.427 177.093 413.944 175.16 412.414H174.999Z" fill="url(#paint1_linear_1_125)"/>
<path d="M23.435 88.3456C23.9987 88.3456 24.7235 88.4261 25.1262 88.1845C32.7769 83.7552 41.4745 82.7082 49.9306 81.017C65.232 77.8762 80.6945 76.8293 96.3181 77.4735C121.445 78.601 145.846 83.6746 169.443 92.6139C186.596 99.0566 203.186 106.788 219.052 116.049C219.374 116.21 219.615 116.371 219.937 116.532C220.421 116.935 221.307 117.177 220.904 117.982C220.582 118.707 219.696 118.385 219.132 118.304C216.797 117.982 214.542 117.66 212.206 117.257C203.589 115.808 194.972 116.049 186.355 116.452C166.141 117.338 146.813 122.492 128.209 130.304C108.479 138.518 90.1975 149.39 73.7686 163.162C53.3935 180.235 36.1593 199.804 22.8712 222.757C12.6434 240.393 5.23431 259.077 2.17403 279.372C1.85189 281.707 2.33509 284.204 0.643884 286.217C-0.322522 250.46 0.402283 214.623 0.160681 178.866C0.0801473 163.725 0.0801473 148.585 0.160681 133.445C0.160681 127.646 0.321749 121.767 2.09349 116.13C5.79805 104.211 13.0461 95.0299 23.5155 88.3456H23.435Z" fill="url(#paint2_linear_1_125)"/>
<path d="M349.677 330.269C341.302 333.168 332.685 335.021 324.068 336.631C313.196 338.645 302.323 340.175 291.21 340.336C267.694 340.658 244.742 337.92 222.112 331.316C206.971 326.887 192.314 321.33 178.06 314.726C173.067 312.471 168.315 309.653 163.483 306.995C162.436 306.431 161.309 305.787 160.503 304.257C167.429 305.465 174.114 305.948 180.798 306.109C202.945 306.753 224.206 302.243 244.661 293.787C262.942 286.298 279.935 276.553 295.639 264.634C308.525 254.89 320.121 243.695 330.752 231.454C342.188 218.247 352.013 203.912 359.744 188.288C367.717 172.262 374.079 155.752 376.173 137.793C376.334 136.746 376.415 135.619 377.059 134.733C377.784 135.458 377.542 136.424 377.542 137.31C377.542 187.161 377.542 237.011 377.542 286.861C377.542 302.485 371.099 315.29 359.422 325.598C356.523 328.095 352.979 328.82 349.597 330.189L349.677 330.269Z" fill="url(#paint3_linear_1_125)"/>
<path d="M373.677 111.942C372.871 119.754 370.697 127.243 368.845 134.814C364.738 151.162 358.375 166.705 350.483 181.604C342.349 197.066 332.605 211.401 321.41 224.77C313.679 234.031 305.384 242.729 296.364 250.782C286.781 259.319 277.278 268.097 266.728 275.506C266.084 275.989 265.359 276.392 264.553 276.956C264.151 275.828 264.956 275.345 265.359 274.781C273.895 263.909 282.11 252.796 288.15 240.313C290.244 236.045 291.774 231.535 294.27 227.508C294.512 227.025 294.512 226.381 294.593 225.817C294.109 224.448 294.915 223.562 295.72 222.757C296.767 221.71 297.572 220.421 298.539 219.294C299.183 218.488 300.149 217.441 299.022 216.233C298.861 215.992 298.78 215.831 298.7 215.589C297.975 213.737 296.525 211.965 298.136 209.871C299.102 203.67 300.23 197.469 300.955 191.187C302.163 181.121 302.002 170.973 301.357 160.826C300.874 153.256 299.988 145.766 298.861 138.357C297.492 129.982 294.995 121.848 292.579 113.714C284.848 87.6208 271.64 64.3465 254.648 43.2466C246.755 33.4215 237.655 24.5628 228.233 16.1067C227.105 15.0598 225.414 14.335 225.253 12.4827C230.649 14.6571 235.481 18.0396 240.474 20.9388C273.895 40.3474 307.559 59.5145 340.738 79.3258C345.49 82.1445 350.161 84.9632 354.832 87.8624C360.147 91.1643 363.932 96.0768 367.476 101.15C369.811 104.533 372.469 107.835 373.596 111.942H373.677Z" fill="url(#paint4_linear_1_125)"/>
<path d="M12.4016 317.786C13.7706 288.875 20.616 261.493 33.9846 235.803C43.246 218.086 55.4871 202.623 70.3859 189.335C76.8286 183.537 83.7545 178.382 91.3247 174.034C92.2106 173.47 93.2575 173.067 94.7071 172.262C93.2575 176.208 91.969 179.671 90.6804 183.134C85.3652 197.227 81.8217 211.643 79.4057 226.461C77.3118 239.427 76.8286 252.474 77.4729 265.52C78.4393 284.284 82.3854 302.485 89.2308 320.122C97.3647 341.141 108.881 360.067 123.458 377.14C129.739 384.468 136.343 391.475 143.833 397.595C144.235 397.918 144.719 398.24 144.316 398.803C109.847 377.623 75.2985 356.523 40.83 335.343C31.327 329.544 21.9045 323.665 12.4016 317.786Z" fill="url(#paint5_linear_1_125)"/>
<path d="M295.075 201.898C290.163 189.254 283.156 177.738 275.667 166.624C252.151 131.834 222.353 104.211 183.777 86.7349C166.382 78.8426 148.181 73.8495 129.256 71.3529C103.083 67.89 77.1506 69.6617 51.3798 74.8964C49.7691 75.2186 48.239 76.0239 46.5478 75.8628C50.1718 73.1247 54.279 71.0308 58.2252 68.6953C84.6403 53.2328 110.975 37.8509 137.39 22.4689C139.323 21.8247 141.175 21.8247 143.188 22.4689C167.671 29.6364 189.898 41.2333 210.193 56.5347C219.937 63.8633 228.957 71.9167 237.252 80.8559C258.432 103.566 274.217 129.74 285.008 158.813C288.874 169.121 292.337 179.51 294.511 190.301C295.317 194.006 296.042 197.791 296.364 201.576C296.364 202.059 296.605 202.704 295.961 202.865C295.317 203.106 295.478 202.14 294.995 201.979L295.075 201.898Z" fill="url(#paint6_linear_1_125)"/>
<path d="M247.238 349.195C249.493 350.242 251.99 349.839 254.325 350C280.66 352.013 306.511 349.436 331.557 340.819C331.96 340.658 332.282 340.497 332.685 340.255C332.926 340.255 333.248 340.094 333.409 340.255C334.134 340.9 333.168 340.98 333.007 341.061C328.899 343.557 324.792 346.134 320.604 348.55C297.089 362.402 273.573 376.173 250.057 390.025C249.09 390.589 248.205 391.072 247.238 391.636C231.131 387.046 215.588 380.925 200.851 372.952C187.079 365.543 174.355 356.765 162.436 346.618C143.108 330.189 127.082 311.022 113.874 289.439C106.465 277.358 100.103 264.795 95.1098 251.507C94.9487 250.943 94.0628 250.299 95.1098 249.655C95.1903 249.655 95.593 250.057 95.8346 250.219C101.714 257.869 107.27 265.681 113.391 273.09C114.035 273.896 114.921 274.62 115.404 275.587C116.21 276.875 117.659 277.681 118.384 279.13C118.706 279.452 119.028 279.855 119.35 280.177C154.302 317.464 196.099 341.947 247.319 349.034L247.238 349.195Z" fill="url(#paint7_linear_1_125)"/>
<path d="M295.075 201.898C297.25 202.704 296.042 201.012 295.961 200.61C294.834 195.697 293.787 190.704 292.498 185.792C287.505 167.188 280.901 149.149 271.962 132.075C263.909 116.613 254.325 102.197 242.97 88.9093C224.689 67.6484 203.186 50.5752 178.301 37.6898C166.624 31.6498 154.544 26.8178 141.981 23.1937C140.45 22.7911 138.92 22.3079 137.31 22.5495C145.846 17.5564 154.463 12.7243 162.919 7.57017C175.08 0.161059 188.046 -1.44962 201.656 1.12747C201.898 1.12747 202.059 1.36907 202.3 1.53013C202.3 2.09387 202.542 2.49654 202.945 2.81868C216.152 11.9995 227.024 23.5964 237.091 36.0791C249.332 51.3 259.963 67.5679 268.66 85.0437C279.13 106.063 286.78 128.129 290.485 151.404C292.418 163.645 294.351 175.966 295.236 188.449C295.559 192.878 296.283 197.388 296.767 201.818C296.847 202.623 297.733 203.912 296.444 204.153C295.156 204.395 295.317 202.865 294.995 201.979L295.075 201.898Z" fill="url(#paint8_linear_1_125)"/>
<path d="M207.293 277.52C180.073 281.707 155.591 274.298 132.719 260.044C114.518 248.769 99.0558 234.273 85.6067 217.763C85.0429 217.119 84.1571 216.636 85.204 215.347C103.968 192.476 125.793 173.389 153.416 161.954C182.086 150.034 210.354 151.726 238.138 165.175C258.996 175.242 276.311 189.818 291.773 206.811C292.74 207.858 293.706 208.824 294.673 209.871C297.411 210.999 297.974 213.978 299.666 215.911C300.39 217.683 299.021 218.81 298.055 219.938C292.498 226.783 286.458 233.145 280.015 239.185C272.365 246.272 264.311 252.796 255.614 258.514C241.601 267.775 226.46 274.379 209.951 277.439C209.065 277.6 208.099 277.52 207.213 277.6L207.293 277.52Z" fill="white"/>
<path d="M247.238 349.195C239.185 348.792 231.293 347.02 223.481 345.168C208.904 341.705 195.052 336.47 181.764 329.625C166.302 321.652 152.128 311.827 139.081 300.311C132.719 294.673 126.76 288.633 120.961 282.513C120.317 281.868 119.592 281.305 119.351 280.338C123.136 282.674 125.874 286.217 129.095 289.197C145.122 304.418 162.517 317.545 182.328 327.531C197.227 335.101 212.689 341.061 228.877 345.249C234.434 346.698 240.071 347.584 245.708 348.631C246.272 348.711 246.836 348.711 247.319 349.114L247.238 349.195Z" fill="#452899"/>
<path d="M207.294 277.52C231.615 273.251 252.312 261.574 270.996 245.95C281.063 237.494 290.324 228.233 298.539 217.925C299.022 217.28 299.747 216.797 299.666 215.831C301.196 217.119 300.311 218.408 299.586 219.455C298.056 221.629 296.284 223.723 294.673 225.817C289.197 232.098 283.157 237.816 276.956 243.293C268.661 250.541 259.802 257.144 250.218 262.782C237.736 270.03 224.528 275.184 210.354 277.681C209.388 277.842 208.341 277.922 207.374 277.52H207.294Z" fill="#2A2A32"/>
<path d="M115.404 275.748C110.894 271.48 107.431 266.486 103.646 261.574C100.908 257.95 98.0089 254.406 95.8345 250.38C98.2505 252.151 99.7001 254.809 101.552 257.144C105.901 262.782 110.169 268.419 114.518 274.057C114.921 274.62 115.404 275.023 115.404 275.748Z" fill="#452899"/>
<path d="M299.666 215.831C297.814 213.978 296.203 211.965 294.673 209.791C295.8 210.113 296.928 210.596 298.055 209.871C297.733 212.046 298.78 213.898 299.586 215.831H299.666Z" fill="#33313F"/>
<path d="M118.304 279.291C117.096 278.325 115.807 277.359 115.324 275.748C116.613 276.714 117.901 277.6 118.304 279.291Z" fill="#452899"/>
<path d="M211.481 175.322C208.099 177.094 205.522 179.027 203.83 181.845C198.757 190.301 204.555 202.462 214.622 204.797C221.709 206.408 228.393 203.026 231.373 196.341C231.695 195.697 231.534 194.57 232.42 194.489C233.386 194.489 233.547 195.536 233.95 196.261C247.56 221.549 232.5 253.359 204.072 259.722C175.402 266.084 148.504 243.856 149.47 214.542C150.114 194.892 165.818 175.161 187.804 172.342C195.777 171.295 203.508 172.02 211.481 175.403V175.322Z" fill="url(#paint9_radial_1_125)"/>
<path d="M598.125 131.914C636.459 131.914 652.163 147.296 652.163 181.765V205.764C652.163 240.232 636.459 255.614 598.125 255.614H515.658C512.115 255.614 510.343 253.843 510.343 250.299V137.23C510.343 133.686 512.115 131.914 515.658 131.914H598.125ZM537.161 228.394C537.161 230.005 537.885 230.729 539.496 230.729H597.48C618.339 230.729 625.426 224.367 625.426 203.509V184.1C625.426 163.242 618.339 156.88 597.48 156.88H539.496C537.885 156.88 537.161 157.605 537.161 159.215V228.474V228.394Z" fill="url(#paint10_linear_1_125)"/>
<path d="M714.899 131.914C717.557 131.914 718.765 133.122 718.765 135.78V251.668C718.765 254.326 717.557 255.534 714.899 255.534H695.813C693.155 255.534 691.947 254.326 691.947 251.668V135.78C691.947 133.122 693.155 131.914 695.813 131.914H714.899Z" fill="url(#paint11_linear_1_125)"/>
<path d="M838.357 131.914C847.538 131.914 852.853 134.572 858.652 145.364L917.119 251.507C918.327 254.004 917.844 255.534 915.025 255.534H892.556C890.221 255.534 889.174 254.97 888.53 253.44L876.852 231.857H792.211L780.695 253.44C779.809 255.051 778.923 255.534 776.668 255.534H753.555C750.736 255.534 750.173 253.923 751.461 251.507L809.446 145.364C815.083 134.572 820.559 131.914 827.968 131.914H838.357ZM864.289 208.905L836.908 158.168C836.344 157.283 835.7 156.96 834.814 156.96H833.767C832.881 156.96 832.317 157.283 831.834 158.168L804.614 208.905H864.289Z" fill="url(#paint12_linear_1_125)"/>
<path d="M1072.63 131.914C1075.13 131.914 1076.5 133.122 1076.5 135.78V152.934C1076.5 155.43 1075.05 156.799 1072.63 156.799H984.123C977.761 156.799 974.781 159.779 974.781 166.302V172.342C974.781 178.705 977.6 181.362 984.123 181.362H1050.16C1069.97 181.362 1081.09 192.637 1081.09 212.448V226.783C1081.09 244.984 1070.13 255.614 1049.84 255.614H951.99C949.332 255.614 948.124 254.406 948.124 251.749V234.595C948.124 232.098 949.332 230.729 951.99 230.729H1044.76C1050.97 230.729 1054.11 227.75 1054.11 221.226V213.978C1054.11 207.616 1051.45 204.959 1044.93 204.959H978.647C958.835 204.959 947.883 193.684 947.883 173.873V160.826C947.883 142.625 958.674 131.995 978.969 131.995H1072.63V131.914Z" fill="url(#paint13_linear_1_125)"/>
<path d="M1142.13 131.914C1144.79 131.914 1146 133.122 1146 135.78V251.668C1146 254.326 1144.79 255.534 1142.13 255.534H1123.04C1120.39 255.534 1119.18 254.326 1119.18 251.668V135.78C1119.18 133.122 1120.39 131.914 1123.04 131.914H1142.13Z" fill="url(#paint14_linear_1_125)"/>
<path d="M1324.78 131.914C1327.28 131.914 1328.65 133.122 1328.65 135.78V153.095C1328.65 155.752 1327.2 156.96 1324.78 156.96H1236.27C1218.07 156.96 1212.76 162.437 1212.76 181.201V206.65C1212.76 225.414 1218.07 230.649 1236.27 230.649H1294.58C1300.78 230.649 1303.44 227.991 1303.44 220.018V206.972C1303.44 205.2 1302.72 204.475 1301.35 204.475H1249.56C1247.07 204.475 1245.7 203.267 1245.7 200.61V185.067C1245.7 182.57 1247.15 181.201 1249.56 181.201H1323.25C1326.79 181.201 1328.57 182.973 1328.57 186.516V228.555C1328.57 248.366 1321 255.614 1306.66 255.614H1235.47C1199.63 255.614 1186.02 242.89 1186.02 208.985V178.624C1186.02 144.719 1199.63 131.995 1235.47 131.995H1324.86L1324.78 131.914Z" fill="url(#paint15_linear_1_125)"/>
<path d="M1501.07 131.914C1503.73 131.914 1505.1 133.122 1505.1 135.78V251.668C1505.1 254.326 1503.65 255.534 1501.07 255.534H1481.98C1479.49 255.534 1478.12 254.326 1478.12 251.668V205.2H1395.41V251.668C1395.41 254.326 1394.2 255.534 1391.54 255.534H1372.46C1369.8 255.534 1368.59 254.326 1368.59 251.668V135.78C1368.59 133.122 1369.8 131.914 1372.46 131.914H1391.54C1394.2 131.914 1395.41 133.122 1395.41 135.78V181.201H1478.12V135.78C1478.12 133.122 1479.57 131.914 1481.98 131.914H1501.07Z" fill="url(#paint16_linear_1_125)"/>
<path d="M1680.58 131.914C1683.24 131.914 1684.61 133.122 1684.61 135.78V153.095C1684.61 155.752 1683.16 156.96 1680.58 156.96H1624.93V251.668C1624.93 254.326 1623.88 255.534 1621.23 255.534H1601.98C1599.48 255.534 1598.11 254.326 1598.11 251.668V156.96H1542.46C1539.97 156.96 1538.6 155.752 1538.6 153.095V135.78C1538.6 133.122 1540.05 131.914 1542.46 131.914H1680.58Z" fill="url(#paint17_linear_1_125)"/>
<path d="M672.699 309.894H677.934L685.101 343.638H686.47L693.638 309.894H701.611L708.778 343.638H710.147L717.315 309.894H722.55L714.013 348.309H705.235L698.39 314.565H697.02L690.175 348.309H681.397L672.86 309.894H672.699Z" fill="url(#paint18_radial_1_125)"/>
<path d="M747.032 348.309V309.894H773.93V314.565H751.944V326.645H769.823V331.316H751.944V343.638H773.93V348.309H747.032Z" fill="url(#paint19_radial_1_125)"/>
<path d="M831.029 337.356H835.942C836.344 338.725 836.989 340.014 837.955 341.061C839.968 343.477 843.029 344.765 846.975 344.765C850.116 344.765 852.532 344.121 854.142 342.913C855.753 341.705 856.558 340.094 856.558 338.162C856.558 336.551 855.914 335.262 854.545 334.296C853.176 333.329 851.324 332.524 848.908 331.799C848.505 331.638 847.78 331.477 846.814 331.155C845.847 330.913 845.122 330.672 844.559 330.591C843.995 330.43 843.27 330.189 842.384 329.947C841.498 329.705 840.774 329.383 840.21 329.142C839.646 328.9 839.002 328.578 838.197 328.175C837.391 327.773 836.827 327.451 836.344 327.048C835.861 326.645 835.378 326.243 834.895 325.679C834.411 325.115 833.928 324.551 833.687 323.988C833.445 323.424 833.203 322.78 832.962 321.974C832.72 321.169 832.64 320.444 832.64 319.639C832.64 316.659 833.928 314.082 836.425 311.907C838.921 309.733 842.223 308.686 846.33 308.686C851.726 308.686 855.833 310.458 858.652 314.082C859.86 315.693 860.665 317.464 861.149 319.397H856.236C855.914 318.35 855.35 317.384 854.464 316.417C852.451 314.404 849.713 313.357 846.33 313.357C843.592 313.357 841.418 314.001 839.888 315.209C838.358 316.417 837.552 317.948 837.552 319.719C837.552 320.525 837.794 321.33 838.277 322.055C838.76 322.78 839.324 323.343 839.968 323.746C840.613 324.149 841.579 324.632 842.706 325.115C843.914 325.598 844.961 325.92 845.847 326.162C846.733 326.404 847.941 326.726 849.471 327.128C851.163 327.531 852.612 328.095 853.901 328.578C855.189 329.142 856.397 329.786 857.605 330.672C858.813 331.477 859.699 332.524 860.343 333.813C860.988 335.021 861.31 336.47 861.31 338.081C861.31 341.222 860.021 343.879 857.444 346.054C854.867 348.228 851.324 349.356 846.814 349.356C840.935 349.356 836.505 347.342 833.606 343.316C832.318 341.624 831.432 339.611 830.948 337.276L831.029 337.356Z" fill="url(#paint20_radial_1_125)"/>
<path d="M887 348.309V309.894H913.898V314.565H891.912V326.645H909.791V331.316H891.912V343.638H913.898V348.309H887Z" fill="url(#paint21_radial_1_125)"/>
<path d="M939.105 348.309V309.894H966.003V314.565H944.017V326.645H961.896V331.316H944.017V343.638H966.003V348.309H939.105Z" fill="url(#paint22_radial_1_125)"/>
<path d="M1018.75 314.565V309.894H1050V314.565H1036.79V348.309H1031.88V314.565H1018.67H1018.75Z" fill="url(#paint23_radial_1_125)"/>
<path d="M1073.6 348.309V309.894H1078.51V326.645H1099.13V309.894H1104.04V348.309H1099.13V331.316H1078.51V348.309H1073.6Z" fill="url(#paint24_radial_1_125)"/>
<path d="M1131.5 348.309V309.894H1158.4V314.565H1136.41V326.645H1154.29V331.316H1136.41V343.638H1158.4V348.309H1131.5Z" fill="url(#paint25_radial_1_125)"/>
<path d="M1217.43 333.732V309.894H1222.34V333.732C1222.34 337.115 1223.31 339.772 1225.16 341.786C1227.01 343.799 1229.51 344.765 1232.49 344.765C1235.47 344.765 1237.97 343.799 1239.82 341.786C1241.67 339.772 1242.64 337.115 1242.64 333.732V309.894H1247.55V333.732C1247.55 338.484 1246.18 342.269 1243.44 345.087C1240.7 347.906 1237 349.356 1232.49 349.356C1227.98 349.356 1224.28 347.906 1221.54 345.087C1218.8 342.269 1217.43 338.484 1217.43 333.732Z" fill="url(#paint26_radial_1_125)"/>
<path d="M1274.77 348.309V309.894H1281.94L1300.78 342.269H1300.86V341.705V309.894H1305.78V348.309H1298.61L1279.76 315.934H1279.68V316.498V348.309H1274.77Z" fill="url(#paint27_radial_1_125)"/>
<path d="M1331.06 337.356H1335.98C1336.38 338.725 1337.02 340.014 1337.99 341.061C1340 343.477 1343.06 344.765 1347.01 344.765C1350.15 344.765 1352.57 344.121 1354.18 342.913C1355.79 341.705 1356.59 340.094 1356.59 338.162C1356.59 336.551 1355.95 335.262 1354.58 334.296C1353.21 333.329 1351.36 332.524 1348.94 331.799C1348.54 331.638 1347.81 331.477 1346.85 331.155C1345.88 330.913 1345.16 330.672 1344.59 330.591C1344.03 330.43 1343.3 330.189 1342.42 329.947C1341.53 329.705 1340.81 329.383 1340.24 329.142C1339.68 328.9 1339.04 328.578 1338.23 328.175C1337.43 327.773 1336.86 327.451 1336.38 327.048C1335.9 326.645 1335.41 326.243 1334.93 325.679C1334.45 325.115 1333.96 324.551 1333.72 323.988C1333.48 323.424 1333.24 322.78 1333 321.974C1332.75 321.169 1332.67 320.444 1332.67 319.639C1332.67 316.659 1333.96 314.082 1336.46 311.907C1338.96 309.733 1342.26 308.686 1346.36 308.686C1351.76 308.686 1355.87 310.458 1358.69 314.082C1359.89 315.693 1360.7 317.464 1361.18 319.397H1356.27C1355.95 318.35 1355.38 317.384 1354.5 316.417C1352.49 314.404 1349.75 313.357 1346.36 313.357C1343.63 313.357 1341.45 314.001 1339.92 315.209C1338.39 316.417 1337.59 317.948 1337.59 319.719C1337.59 320.525 1337.83 321.33 1338.31 322.055C1338.79 322.78 1339.36 323.343 1340 323.746C1340.65 324.149 1341.61 324.632 1342.74 325.115C1343.95 325.598 1345 325.92 1345.88 326.162C1346.77 326.404 1347.98 326.726 1349.51 327.128C1351.2 327.531 1352.65 328.095 1353.93 328.578C1355.22 329.142 1356.43 329.786 1357.64 330.672C1358.85 331.477 1359.73 332.524 1360.38 333.813C1361.02 335.021 1361.34 336.47 1361.34 338.081C1361.34 341.222 1360.06 343.879 1357.48 346.054C1354.9 348.228 1351.36 349.356 1346.85 349.356C1340.97 349.356 1336.54 347.342 1333.64 343.316C1332.35 341.624 1331.47 339.611 1330.98 337.276L1331.06 337.356Z" fill="url(#paint28_radial_1_125)"/>
<path d="M1387.03 348.309V309.894H1413.93V314.565H1391.95V326.645H1409.83V331.316H1391.95V343.638H1413.93V348.309H1387.03Z" fill="url(#paint29_radial_1_125)"/>
<path d="M1439.14 348.309V309.894H1466.04V314.565H1444.05V326.645H1461.93V331.316H1444.05V343.638H1466.04V348.309H1439.14Z" fill="url(#paint30_radial_1_125)"/>
<path d="M1491.33 348.309V309.894H1498.49L1517.34 342.269H1517.42V341.705V309.894H1522.33V348.309H1515.16L1496.32 315.934H1496.24V316.498V348.309H1491.33Z" fill="url(#paint31_radial_1_125)"/>
</g>
<defs>
<radialGradient id="paint0_radial_1_125" cx="0" cy="0" r="1" gradientUnits="userSpaceOnUse" gradientTransform="translate(192.321 213.192) scale(199.55 199.55)">
<stop offset="0.02" stop-color="#361A86"/>
<stop offset="0.11" stop-color="#31177E"/>
<stop offset="0.36" stop-color="#27126D"/>
<stop offset="0.64" stop-color="#200F64"/>
<stop offset="1" stop-color="#1F0F61"/>
</radialGradient>
<linearGradient id="paint1_linear_1_125" x1="94.5459" y1="333.088" x2="328.175" y2="333.088" gradientUnits="userSpaceOnUse">
<stop offset="0.02" stop-color="#391E89"/>
<stop offset="0.53" stop-color="#482A9B"/>
<stop offset="1" stop-color="#5333A9"/>
</linearGradient>
<linearGradient id="paint2_linear_1_125" x1="48.5615" y1="275.667" x2="123.941" y2="85.3658" gradientUnits="userSpaceOnUse">
<stop offset="0.02" stop-color="#6848C1"/>
<stop offset="0.03" stop-color="#6747C0"/>
<stop offset="0.66" stop-color="#482A9E"/>
<stop offset="1" stop-color="#3D2091"/>
</linearGradient>
<linearGradient id="paint3_linear_1_125" x1="207.374" y1="252.393" x2="475.31" y2="221.951" gradientUnits="userSpaceOnUse">
<stop offset="0.02" stop-color="#3A208E"/>
<stop offset="0.62" stop-color="#5538AA"/>
<stop offset="1" stop-color="#6243B8"/>
</linearGradient>
<linearGradient id="paint4_linear_1_125" x1="249.735" y1="43.005" x2="304.579" y2="162.517" gradientUnits="userSpaceOnUse">
<stop offset="0.02" stop-color="#6140B7"/>
<stop offset="0.53" stop-color="#4F2EA4"/>
<stop offset="1" stop-color="#432397"/>
</linearGradient>
<linearGradient id="paint5_linear_1_125" x1="12.4016" y1="285.492" x2="144.477" y2="285.492" gradientUnits="userSpaceOnUse">
<stop offset="0.02" stop-color="#5433AB"/>
<stop offset="0.55" stop-color="#422596"/>
<stop offset="1" stop-color="#371D89"/>
</linearGradient>
<linearGradient id="paint6_linear_1_125" x1="227.99" y1="115.324" x2="52.91" y2="33.0994" gradientUnits="userSpaceOnUse">
<stop offset="0.02" stop-color="#48289F"/>
<stop offset="0.12" stop-color="#4D2EA4"/>
<stop offset="0.69" stop-color="#6C50C3"/>
<stop offset="1" stop-color="#785ECF"/>
</linearGradient>
<linearGradient id="paint7_linear_1_125" x1="136.826" y1="253.44" x2="287.505" y2="375.61" gradientUnits="userSpaceOnUse">
<stop offset="0.02" stop-color="#48289F"/>
<stop offset="0.12" stop-color="#4D2EA4"/>
<stop offset="0.69" stop-color="#6C50C3"/>
<stop offset="1" stop-color="#785ECF"/>
</linearGradient>
<linearGradient id="paint8_linear_1_125" x1="137.39" y1="102.036" x2="297.169" y2="102.036" gradientUnits="userSpaceOnUse">
<stop offset="0.02" stop-color="#5433AB"/>
<stop offset="0.55" stop-color="#422596"/>
<stop offset="1" stop-color="#371D89"/>
</linearGradient>
<radialGradient id="paint9_radial_1_125" cx="0" cy="0" r="1" gradientUnits="userSpaceOnUse" gradientTransform="translate(196.209 221.223) scale(45.1666 45.1666)">
<stop offset="0.02" stop-color="#361A86"/>
<stop offset="0.11" stop-color="#31177E"/>
<stop offset="0.36" stop-color="#27126D"/>
<stop offset="0.64" stop-color="#200F64"/>
<stop offset="1" stop-color="#1F0F61"/>
</radialGradient>
<linearGradient id="paint10_linear_1_125" x1="510.343" y1="193.764" x2="652.163" y2="193.764" gradientUnits="userSpaceOnUse">
<stop offset="0.02" stop-color="#FFFFFF"/>
<stop offset="0.53" stop-color="#FFFFFF"/>
<stop offset="1" stop-color="#FFFFFF"/>
</linearGradient>
<linearGradient id="paint11_linear_1_125" x1="691.947" y1="193.764" x2="718.765" y2="193.764" gradientUnits="userSpaceOnUse">
<stop offset="0.02" stop-color="#FFFFFF"/>
<stop offset="0.53" stop-color="#FFFFFF"/>
<stop offset="1" stop-color="#FFFFFF"/>
</linearGradient>
<linearGradient id="paint12_linear_1_125" x1="750.817" y1="193.764" x2="917.844" y2="193.764" gradientUnits="userSpaceOnUse">
<stop offset="0.02" stop-color="#FFFFFF"/>
<stop offset="0.53" stop-color="#FFFFFF"/>
<stop offset="1" stop-color="#FFFFFF"/>
</linearGradient>
<linearGradient id="paint13_linear_1_125" x1="947.963" y1="193.764" x2="1081.17" y2="193.764" gradientUnits="userSpaceOnUse">
<stop offset="0.02" stop-color="#FFFFFF"/>
<stop offset="0.53" stop-color="#FFFFFF"/>
<stop offset="1" stop-color="#FFFFFF"/>
</linearGradient>
<linearGradient id="paint14_linear_1_125" x1="1119.1" y1="193.764" x2="1146" y2="193.764" gradientUnits="userSpaceOnUse">
<stop offset="0.02" stop-color="#FFFFFF"/>
<stop offset="0.53" stop-color="#FFFFFF"/>
<stop offset="1" stop-color="#FFFFFF"/>
</linearGradient>
<linearGradient id="paint15_linear_1_125" x1="1185.94" y1="193.764" x2="1328.65" y2="193.764" gradientUnits="userSpaceOnUse">
<stop offset="0.02" stop-color="#FFFFFF"/>
<stop offset="0.53" stop-color="#FFFFFF"/>
<stop offset="1" stop-color="#FFFFFF"/>
</linearGradient>
<linearGradient id="paint16_linear_1_125" x1="1368.59" y1="193.764" x2="1505.18" y2="193.764" gradientUnits="userSpaceOnUse">
<stop offset="0.02" stop-color="#FFFFFF"/>
<stop offset="0.53" stop-color="#FFFFFF"/>
<stop offset="1" stop-color="#FFFFFF"/>
</linearGradient>
<linearGradient id="paint17_linear_1_125" x1="1538.6" y1="193.764" x2="1684.69" y2="193.764" gradientUnits="userSpaceOnUse">
<stop offset="0.02" stop-color="#FFFFFF"/>
<stop offset="0.53" stop-color="#FFFFFF"/>
<stop offset="1" stop-color="#FFFFFF"/>
</linearGradient>
<radialGradient id="paint18_radial_1_125" cx="0" cy="0" r="1" gradientUnits="userSpaceOnUse" gradientTransform="translate(696.54 328.477) scale(22.179 22.179)">
<stop offset="0.02" stop-color="#9CA3AF"/>
<stop offset="0.11" stop-color="#9CA3AF"/>
<stop offset="0.36" stop-color="#9CA3AF"/>
<stop offset="0.64" stop-color="#9CA3AF"/>
<stop offset="1" stop-color="#9CA3AF"/>
</radialGradient>
<radialGradient id="paint19_radial_1_125" cx="0" cy="0" r="1" gradientUnits="userSpaceOnUse" gradientTransform="translate(759.421 328.477) scale(16.5521 16.5521)">
<stop offset="0.02" stop-color="#9CA3AF"/>
<stop offset="0.11" stop-color="#9CA3AF"/>
<stop offset="0.36" stop-color="#9CA3AF"/>
<stop offset="0.64" stop-color="#9CA3AF"/>
<stop offset="1" stop-color="#9CA3AF"/>
</radialGradient>
<radialGradient id="paint20_radial_1_125" cx="0" cy="0" r="1" gradientUnits="userSpaceOnUse" gradientTransform="translate(845.057 328.477) scale(17.9075 17.9075)">
<stop offset="0.02" stop-color="#9CA3AF"/>
<stop offset="0.11" stop-color="#9CA3AF"/>
<stop offset="0.36" stop-color="#9CA3AF"/>
<stop offset="0.64" stop-color="#9CA3AF"/>
<stop offset="1" stop-color="#9CA3AF"/>
</radialGradient>
<radialGradient id="paint21_radial_1_125" cx="0" cy="0" r="1" gradientUnits="userSpaceOnUse" gradientTransform="translate(899.19 328.477) scale(16.5521 16.5521)">
<stop offset="0.02" stop-color="#9CA3AF"/>
<stop offset="0.11" stop-color="#9CA3AF"/>
<stop offset="0.36" stop-color="#9CA3AF"/>
<stop offset="0.64" stop-color="#9CA3AF"/>
<stop offset="1" stop-color="#9CA3AF"/>
</radialGradient>
<radialGradient id="paint22_radial_1_125" cx="0" cy="0" r="1" gradientUnits="userSpaceOnUse" gradientTransform="translate(951.269 328.477) scale(16.5521 16.5521)">
<stop offset="0.02" stop-color="#9CA3AF"/>
<stop offset="0.11" stop-color="#9CA3AF"/>
<stop offset="0.36" stop-color="#9CA3AF"/>
<stop offset="0.64" stop-color="#9CA3AF"/>
<stop offset="1" stop-color="#9CA3AF"/>
</radialGradient>
<radialGradient id="paint23_radial_1_125" cx="0" cy="0" r="1" gradientUnits="userSpaceOnUse" gradientTransform="translate(1032.92 328.477) scale(17.4968 17.4968)">
<stop offset="0.02" stop-color="#9CA3AF"/>
<stop offset="0.11" stop-color="#9CA3AF"/>
<stop offset="0.36" stop-color="#9CA3AF"/>
<stop offset="0.64" stop-color="#9CA3AF"/>
<stop offset="1" stop-color="#9CA3AF"/>
</radialGradient>
<radialGradient id="paint24_radial_1_125" cx="0" cy="0" r="1" gradientUnits="userSpaceOnUse" gradientTransform="translate(1087.3 328.477) scale(17.2914 17.2914)">
<stop offset="0.02" stop-color="#9CA3AF"/>
<stop offset="0.11" stop-color="#9CA3AF"/>
<stop offset="0.36" stop-color="#9CA3AF"/>
<stop offset="0.64" stop-color="#9CA3AF"/>
<stop offset="1" stop-color="#9CA3AF"/>
</radialGradient>
<radialGradient id="paint25_radial_1_125" cx="0" cy="0" r="1" gradientUnits="userSpaceOnUse" gradientTransform="translate(1143.36 328.477) scale(16.5521 16.5521)">
<stop offset="0.02" stop-color="#9CA3AF"/>
<stop offset="0.11" stop-color="#9CA3AF"/>
<stop offset="0.36" stop-color="#9CA3AF"/>
<stop offset="0.64" stop-color="#9CA3AF"/>
<stop offset="1" stop-color="#9CA3AF"/>
</radialGradient>
<radialGradient id="paint26_radial_1_125" cx="0" cy="0" r="1" gradientUnits="userSpaceOnUse" gradientTransform="translate(1230.77 329.01) scale(17.5379 17.5379)">
<stop offset="0.02" stop-color="#9CA3AF"/>
<stop offset="0.11" stop-color="#9CA3AF"/>
<stop offset="0.36" stop-color="#9CA3AF"/>
<stop offset="0.64" stop-color="#9CA3AF"/>
<stop offset="1" stop-color="#9CA3AF"/>
</radialGradient>
<radialGradient id="paint27_radial_1_125" cx="0" cy="0" r="1" gradientUnits="userSpaceOnUse" gradientTransform="translate(1288.47 328.477) scale(17.4147 17.4146)">
<stop offset="0.02" stop-color="#9CA3AF"/>
<stop offset="0.11" stop-color="#9CA3AF"/>
<stop offset="0.36" stop-color="#9CA3AF"/>
<stop offset="0.64" stop-color="#9CA3AF"/>
<stop offset="1" stop-color="#9CA3AF"/>
</radialGradient>
<radialGradient id="paint28_radial_1_125" cx="0" cy="0" r="1" gradientUnits="userSpaceOnUse" gradientTransform="translate(1344.37 328.477) scale(17.9074 17.9075)">
<stop offset="0.02" stop-color="#9CA3AF"/>
<stop offset="0.11" stop-color="#9CA3AF"/>
<stop offset="0.36" stop-color="#9CA3AF"/>
<stop offset="0.64" stop-color="#9CA3AF"/>
<stop offset="1" stop-color="#9CA3AF"/>
</radialGradient>
<radialGradient id="paint29_radial_1_125" cx="0" cy="0" r="1" gradientUnits="userSpaceOnUse" gradientTransform="translate(1398.46 328.477) scale(16.5522 16.5521)">
<stop offset="0.02" stop-color="#9CA3AF"/>
<stop offset="0.11" stop-color="#9CA3AF"/>
<stop offset="0.36" stop-color="#9CA3AF"/>
<stop offset="0.64" stop-color="#9CA3AF"/>
<stop offset="1" stop-color="#9CA3AF"/>
</radialGradient>
<radialGradient id="paint30_radial_1_125" cx="0" cy="0" r="1" gradientUnits="userSpaceOnUse" gradientTransform="translate(1450.54 328.477) scale(16.5521 16.5521)">
<stop offset="0.02" stop-color="#9CA3AF"/>
<stop offset="0.11" stop-color="#9CA3AF"/>
<stop offset="0.36" stop-color="#9CA3AF"/>
<stop offset="0.64" stop-color="#9CA3AF"/>
<stop offset="1" stop-color="#9CA3AF"/>
</radialGradient>
<radialGradient id="paint31_radial_1_125" cx="0" cy="0" r="1" gradientUnits="userSpaceOnUse" gradientTransform="translate(1504.68 328.477) scale(17.4147 17.4146)">
<stop offset="0.02" stop-color="#9CA3AF"/>
<stop offset="0.11" stop-color="#9CA3AF"/>
<stop offset="0.36" stop-color="#9CA3AF"/>
<stop offset="0.64" stop-color="#9CA3AF"/>
<stop offset="1" stop-color="#9CA3AF"/>
</radialGradient>
<clipPath id="clip0_1_125">
<rect width="1684.69" height="417.89" fill="white"/>
</clipPath>
</defs>
</svg>
