<svg width="800" height="899" viewBox="0 0 800 899" fill="none" xmlns="http://www.w3.org/2000/svg">
<g clip-path="url(#clip0_1_39)">
<path d="M662.349 538.743C663.571 540.029 664.888 538.422 666.656 539.065C659.778 543.468 652.708 546.617 645.701 549.96C642.038 551.695 638.052 552.659 634.678 555.006C632.042 558.155 628.25 559.344 624.618 560.534C607.681 566.061 590.198 569.115 572.553 571.3C555.841 573.389 539.065 574.128 522.256 573.646C513.322 573.389 504.419 572.618 495.581 571.461C487.064 568.118 477.905 567.475 469.098 565.386C451.679 561.273 434.71 555.745 418.094 549.156C391.387 538.583 366.447 524.667 343.146 507.89C332.701 500.37 323.124 491.756 313.322 483.4C305.769 476.94 299.052 469.677 291.981 462.767C290.214 461.032 288.06 459.875 286.068 458.46C285.2 457.882 284.557 457.143 284.011 456.275C283.143 453.929 281.472 452.258 279.608 450.683C279.319 450.426 279.094 450.137 278.869 449.815C271.188 438.502 262.285 428.154 254.25 417.098C252.676 414.912 251.101 412.695 249.076 410.991C255.889 428.507 264.181 445.219 273.437 461.514C293.235 496.352 317.821 527.43 347.228 554.588C377.503 582.549 411.666 604.564 449.59 620.794C462.96 626.515 476.619 631.335 490.535 635.546C492.399 636.092 494.681 636.253 495.292 638.759C486.261 644.994 476.715 650.394 467.17 655.825C455.632 662.381 444.609 669.87 432.364 675.076C414.43 682.661 395.758 683.722 377.567 677.551C364.712 673.212 352.788 666.174 341.218 658.814C336.654 655.922 332.026 653.158 327.43 650.297C324.506 647.083 320.778 644.834 317.403 642.166C307.569 634.324 299.727 624.586 291.564 615.169C278.29 599.871 266.656 583.384 256.596 565.772C239.563 535.947 227.672 504.323 221.276 470.513C216.776 446.762 215.587 422.851 216.744 398.843C217.998 372.65 222.979 346.971 230.371 321.774C234.035 309.304 238.502 297.124 243.355 284.397C234.71 289.121 227.254 294.488 220.022 300.145C193.379 320.906 171.75 346.039 154.684 375.125C140.029 400.096 129.777 426.868 122.995 454.99C118.914 471.862 115.957 488.928 114.768 506.283C114.575 509.111 113.932 511.907 113.964 514.768C113.964 516.15 113.675 517.5 112.261 518.207C110.3 518.914 109.433 517.724 108.372 516.31C97.5414 501.591 92.0778 485.2 92.8491 466.849C94.3275 464.342 93.7811 461.514 93.9097 458.878C94.7453 442.423 99.3412 426.836 104.805 411.506C115.861 380.62 131.93 352.402 151.792 326.338C165.29 308.597 180.331 292.174 196.754 277.133C218.641 257.143 242.616 240.045 268.841 225.904C298.73 209.77 330.227 198.457 363.426 191.965C384.38 187.884 405.721 187.305 427.029 188.301C433.906 188.623 440.784 189.458 447.662 190.583C441.298 186.245 434.453 182.774 427.704 179.174C400.321 164.551 371.654 152.981 342.054 143.886C322.513 137.876 302.555 133.312 282.115 131.03C265.82 129.23 249.494 127.88 233.071 127.913C208.967 127.977 185.248 130.998 161.787 136.236C152.659 138.293 143.468 140.125 135.08 144.528C133.505 145.364 131.737 145.846 130.323 144.046C141.025 138.068 151.695 132.058 162.43 126.145C164.197 125.181 166.094 124.506 167.958 123.702C180.588 117.757 194.376 116.857 207.874 115.025C226 112.55 244.287 111.168 262.606 111.554C311.361 112.614 358.027 122.417 401.993 144.271C427.543 156.998 451.294 172.296 472.859 190.873C489.603 205.303 505.062 221.115 519.107 238.309C538.133 261.642 554.556 286.614 568.504 313.257C571.011 318.078 572.425 323.317 574.385 328.266C575.639 325.116 574.289 322.031 573.839 319.139C571.589 305.223 570.85 291.146 568.632 277.262C566.672 264.953 565.386 252.547 563.072 240.27C557.416 210.413 547.903 181.809 535.594 154.041C522.706 124.988 506.347 98.0234 487.353 72.6337C476.458 58.0748 465.499 43.516 452.001 31.2068C442.809 22.8185 434.453 13.434 423.847 6.6527C422.401 5.75281 420.826 4.56368 422.111 2.37823C432.653 4.37084 441.973 9.22381 450.972 14.8481C453.833 16.6479 456.693 18.4477 459.553 20.2474C471.67 29.2784 481.793 40.4949 492.367 51.165C511.104 70.0305 526.531 91.4028 539.868 114.35C550.185 132.091 559.601 150.313 566.158 169.725C573.357 191.001 579.624 212.566 582.741 234.999C585.666 256.018 586.405 277.101 585.795 298.248C585.377 312.068 583.191 325.727 580.556 339.29C580.331 340.479 579.977 341.668 579.174 342.664C577.31 344.785 575.028 344.175 572.778 343.596C567.893 340.736 564.551 336.14 560.919 332.026C553.077 323.124 544.175 315.411 535.272 307.697C520.81 295.099 505.19 284.075 488.221 275.108C465.949 263.313 442.52 255.407 417.194 253.318C387.112 250.811 359.087 257.818 332.155 270.545C309.658 281.183 289.571 295.388 271.027 311.875C258.332 323.156 246.569 335.337 235.61 348.321C231.882 352.756 231.914 352.82 236.349 358.091C249.847 374.128 264.695 388.719 280.861 402.057C300.466 418.255 321.806 431.496 345.492 440.848C361.465 447.148 378.017 450.844 395.211 452.386C406.974 453.447 418.448 451.647 430.05 451.069C434.742 452.29 439.177 450.619 443.612 449.654C476.105 442.423 504.323 426.74 530.098 406.139C543.564 395.404 556.066 383.641 567.958 371.204C569.307 369.822 570.4 367.797 572.843 368.054C574.353 369.468 573.839 371.107 573.068 372.553C567.54 382.999 563.619 394.215 557.545 404.371C548.514 419.476 538.615 433.971 527.816 447.212C536.751 440.077 546.2 432.782 555.231 424.94C561.369 419.605 567.347 414.077 573.421 408.645C604.821 380.588 631.367 348.449 652.868 312.261C673.212 278.065 688.221 241.716 696.095 202.539C697.252 196.818 698.763 191.194 699.92 185.473C700.145 184.284 700.37 183.031 701.655 182.452C703.166 180.845 703.262 182.388 703.551 183.32C705.062 188.205 705.48 193.315 706.54 198.264C708.051 205.464 706.797 212.663 707.215 219.862C707.054 234.517 703.583 248.594 699.277 262.478C694.424 278.033 687.996 293.01 680.765 307.633C672.73 323.831 663.313 339.193 652.708 353.849C644.512 365.161 635.738 375.992 626.257 386.309C620.087 392.994 613.82 399.582 607.263 405.881C586.052 426.257 562.687 443.805 537.201 458.557C508.501 475.237 478.162 487.9 445.862 495.517C433.231 498.505 420.312 500.627 407.199 500.241C403.246 500.145 399.389 501.173 395.436 501.109C383.384 500.916 371.332 500.273 358.348 498.57C369.468 504.451 379.656 509.979 390.23 514.864C407.135 522.674 424.618 529.005 442.23 534.887C461.257 541.218 480.701 546.264 500.627 549.028C515.796 551.149 531.03 552.595 546.328 553.206C565.451 554.009 584.445 553.302 603.407 550.281C621.919 547.357 640.141 543.211 658.236 538.454C659.65 538.068 661.096 537.426 662.446 538.647L662.349 538.743Z" fill="url(#paint0_radial_1_39)"/>
<path d="M377.406 672.698C374.321 670.191 371.268 667.556 368.215 664.985C361.755 659.553 355.52 653.833 349.542 647.887C325.534 624.072 305.383 596.465 289.86 566.447C274.08 535.947 264.631 502.169 257.882 468.456C255.311 455.536 245.83 423.236 246.28 408.356C246.376 404.821 256.468 422.883 258.718 425.358C260.967 427.832 266.238 428.057 268.327 430.821C276.394 441.459 284.461 452.065 292.753 462.478C295.645 466.11 299.245 469.195 302.523 472.505C305.094 475.108 307.729 477.68 310.333 480.251C319.846 489.699 330.355 497.959 340.511 506.637C349.349 514.189 359.087 520.424 368.729 526.723C378.113 532.83 388.301 537.747 398.264 542.954C415.362 551.92 433.424 558.541 451.808 564.262C466.463 568.825 481.568 571.654 496.738 574.096C514.8 577.021 532.958 577.181 551.117 576.507C561.851 576.121 572.521 574.418 583.159 572.393C596.111 569.918 608.677 566.383 620.987 561.819C623.076 561.048 625.004 559.955 627.286 559.955C619.348 565.547 610.863 570.239 602.507 575.189C585.313 585.409 568.183 595.79 550.763 605.56C532.476 615.812 514.446 626.482 496.481 637.249C478.579 647.983 460.71 658.75 442.488 668.938C425.968 678.162 407.103 680.829 388.655 676.876C384.702 676.041 380.588 675.366 377.503 672.794C377.471 672.762 377.406 672.73 377.374 672.698H377.406Z" fill="url(#paint1_linear_1_39)"/>
<path d="M130.291 144.175C131.223 144.078 132.316 144.303 133.055 143.886C145.557 136.654 159.73 135.015 173.485 132.187C198.425 127.077 223.686 125.309 249.076 126.466C290.117 128.33 329.841 136.622 368.375 151.085C396.4 161.626 423.365 174.225 449.237 189.266C449.719 189.523 450.233 189.748 450.651 190.069C451.454 190.712 452.9 191.162 452.29 192.48C451.743 193.701 450.362 193.187 449.333 193.058C445.573 192.576 441.813 192.03 438.084 191.419C424.072 189.105 409.931 189.458 395.854 190.101C362.847 191.58 331.351 200 300.98 212.631C268.745 226.065 239.017 243.773 212.148 266.27C178.981 294.038 150.828 326.049 129.102 363.522C112.422 392.287 100.337 422.754 95.2917 455.825C94.7132 459.585 95.5166 463.667 92.7527 466.945C91.21 408.581 92.367 350.217 92.0135 291.853C91.8849 267.138 91.8528 242.423 92.1099 217.741C92.2063 208.292 92.3992 198.747 95.2274 189.523C101.237 170.047 113.032 155.07 130.194 144.175H130.291Z" fill="url(#paint2_linear_1_39)"/>
<path d="M662.349 538.743C648.755 543.5 634.678 546.457 620.569 549.092C602.86 552.435 585.152 554.877 566.993 555.102C528.652 555.616 491.178 551.213 454.347 540.35C429.696 533.087 405.817 524.024 382.484 513.354C374.353 509.626 366.64 505.062 358.766 500.755C357.03 499.823 355.263 498.763 353.881 496.256C365.226 498.184 376.089 498.988 386.952 499.309C423.14 500.338 457.689 492.978 491.146 479.254C520.971 467.01 548.674 451.165 574.289 431.753C595.308 415.844 614.238 397.59 631.528 377.664C650.201 356.131 666.174 332.798 678.837 307.279C691.789 281.183 702.169 254.154 705.608 224.94C705.801 223.236 705.994 221.404 707.119 219.958C708.308 221.212 707.922 222.754 707.922 224.201C707.922 305.48 708.051 386.791 707.858 468.07C707.794 493.524 697.413 514.446 678.29 531.255C673.598 535.369 667.781 536.558 662.317 538.711L662.349 538.743Z" fill="url(#paint3_linear_1_39)"/>
<path d="M701.559 182.549C700.241 195.276 696.738 207.553 693.653 219.862C687 246.601 676.555 271.895 663.699 296.224C650.426 321.388 634.485 344.785 616.294 366.64C603.696 381.777 590.101 395.983 575.414 409.095C559.73 423.076 544.271 437.313 527.077 449.494C525.984 450.265 524.827 450.972 523.477 451.808C522.77 449.944 524.088 449.172 524.859 448.24C538.808 430.532 552.145 412.406 562.044 391.997C565.419 385.055 567.925 377.696 572.039 371.107C572.489 370.368 572.361 369.275 572.521 368.375C571.75 366.19 573.1 364.712 574.417 363.426C576.153 361.723 577.438 359.666 578.981 357.802C580.074 356.484 581.584 354.781 579.752 352.82C579.528 352.499 579.335 352.145 579.174 351.76C577.953 348.739 575.607 345.782 578.274 342.407C579.817 332.251 581.681 322.128 582.87 311.907C584.798 295.452 584.541 278.933 583.577 262.414C582.87 250.104 581.392 237.892 579.431 225.743C577.246 212.052 573.132 198.843 569.211 185.602C556.613 142.986 535.08 105.094 507.344 70.6733C494.424 54.6039 479.608 40.2057 464.31 26.386C462.446 24.7148 459.682 23.5256 459.457 20.4082C468.295 24.0077 476.137 29.4713 484.332 34.2279C538.904 65.9168 593.733 97.1236 647.919 129.423C655.6 134.019 663.313 138.615 670.898 143.339C679.608 148.803 685.779 156.773 691.531 165.001C695.388 170.529 699.695 175.896 701.559 182.581V182.549Z" fill="url(#paint4_linear_1_39)"/>
<path d="M112.261 518.271C114.511 471.188 125.631 426.386 147.517 384.509C162.623 355.584 182.613 330.387 206.878 308.661C217.387 299.245 228.732 290.857 240.977 283.722C242.488 282.854 244.094 282.115 246.537 280.861C244.159 287.321 242.102 292.978 239.981 298.57C231.335 321.485 225.486 345.139 221.565 369.275C218.126 390.391 217.323 411.666 218.448 432.91C220.055 463.539 226.515 493.267 237.602 521.935C250.844 556.195 269.709 587.048 293.492 614.945C303.712 626.932 314.511 638.31 326.691 648.369C327.302 648.883 328.073 649.365 327.43 650.362C271.155 615.877 214.88 581.392 158.605 546.875C143.114 537.394 127.688 527.816 112.229 518.271H112.261Z" fill="url(#paint5_linear_1_39)"/>
<path d="M573.389 329.327C565.451 308.694 554.009 289.925 541.7 271.734C503.359 215.009 454.797 169.982 391.869 141.475C363.49 128.62 333.826 120.424 302.941 116.375C260.228 110.783 217.933 113.579 175.896 122.192C173.26 122.738 170.786 124.056 167.958 123.799C173.903 119.267 180.556 115.893 186.952 112.165C229.986 86.9999 273.052 61.8673 316.118 36.7026C319.267 35.642 322.32 35.642 325.599 36.574C365.515 48.2083 401.736 67.2023 434.871 92.1421C450.715 104.066 465.499 117.275 479.029 131.769C513.611 168.857 539.29 211.474 556.966 258.943C563.201 275.719 568.89 292.721 572.521 310.268C573.775 316.343 574.964 322.449 575.575 328.652C575.639 329.423 575.928 330.484 574.964 330.773C573.871 331.094 574.16 329.552 573.421 329.262L573.389 329.327Z" fill="url(#paint6_linear_1_39)"/>
<path d="M495.324 569.532C499.052 571.204 503.069 570.561 506.926 570.85C549.863 574.16 591.997 569.982 632.91 555.938C633.553 555.713 634.099 555.359 634.71 555.07C635.128 555.07 635.674 554.877 635.899 555.07C637.12 556.163 635.513 556.227 635.192 556.42C628.507 560.566 621.79 564.679 615.009 568.665C576.667 591.226 538.293 613.723 499.92 636.253C498.409 637.153 496.866 637.988 495.324 638.856C469.002 631.4 443.709 621.372 419.605 608.42C397.204 596.368 376.346 582.034 356.966 565.515C325.502 538.743 299.245 507.504 277.712 472.312C265.66 452.611 255.215 432.107 247.116 410.413C246.794 409.545 245.412 408.388 247.051 407.456C247.212 407.36 247.855 408.067 248.273 408.388C257.818 420.826 266.945 433.585 276.876 445.734C277.969 447.083 279.351 448.24 280.186 449.847C281.504 452.001 283.818 453.318 285.007 455.568C285.554 456.114 286.1 456.693 286.614 457.239C343.596 518.046 411.795 558.027 495.292 569.565L495.324 569.532Z" fill="url(#paint7_linear_1_39)"/>
<path d="M573.389 329.327C576.892 330.677 574.996 327.88 574.835 327.173C573.068 319.107 571.364 311.008 569.211 303.037C561.08 272.698 550.313 243.323 535.787 215.395C522.642 190.166 507.022 166.608 488.446 145.043C458.621 110.429 423.558 82.4683 382.934 61.4816C363.94 51.6793 344.239 43.7731 323.735 37.8274C321.26 37.1204 318.753 36.4455 316.15 36.7026C330.098 28.5714 344.175 20.6653 357.962 12.2771C377.599 0.289275 398.682 -2.34611 420.955 1.89622C421.34 1.96049 421.662 2.31402 421.983 2.50685C421.983 3.3746 422.337 4.04952 423.076 4.56374C444.641 19.6047 462.382 38.5023 478.74 58.8462C498.731 83.6896 516.053 110.268 530.227 138.743C547.292 173.036 559.762 208.999 565.804 246.923C568.986 266.945 572.168 287.032 573.614 307.312C574.128 314.607 575.317 321.838 576.153 329.102C576.314 330.452 577.696 332.541 575.703 332.926C573.646 333.312 573.807 330.805 573.357 329.327H573.389Z" fill="url(#paint8_linear_1_39)"/>
<path d="M430.082 452.611C385.73 459.425 345.75 447.34 308.469 424.168C278.804 405.721 253.608 382.195 231.625 355.166C230.757 354.106 229.278 353.367 231.014 351.245C261.61 313.868 297.22 282.886 342.311 264.149C389.073 244.737 435.192 247.437 480.476 269.388C514.446 285.843 542.729 309.626 568.022 337.265C569.565 338.968 571.171 340.607 572.746 342.279C577.214 344.143 578.081 348.931 580.877 352.145L580.813 352.049C582.034 355.07 579.753 356.838 578.242 358.702C569.179 369.854 559.377 380.267 548.771 390.037C536.301 401.543 523.188 412.181 509.047 421.533C486.229 436.606 461.546 447.34 434.581 452.451C433.071 452.74 431.625 452.643 430.146 452.676L430.082 452.611Z" fill="white"/>
<path d="M495.324 569.532C482.147 568.825 469.323 565.965 456.532 562.944C432.782 557.32 410.092 548.771 388.43 537.619C363.201 524.667 340.093 508.629 318.849 489.796C308.501 480.604 298.795 470.738 289.217 460.775C288.189 459.714 286.936 458.782 286.614 457.207C292.817 461.032 297.284 466.785 302.459 471.702C328.555 496.481 356.934 517.95 389.233 534.276C413.595 546.585 438.824 556.291 465.145 563.105C474.176 565.451 483.465 566.865 492.624 568.697C493.556 568.89 494.52 568.825 495.292 569.532H495.324Z" fill="#452899"/>
<path d="M430.082 452.611C469.741 445.605 503.455 426.675 533.955 401.157C550.41 387.369 565.483 372.232 578.917 355.456C579.753 354.427 580.942 353.559 580.749 351.985C583.288 354.041 581.874 356.131 580.556 357.93C578.017 361.498 575.189 364.872 572.489 368.343C563.555 378.563 553.72 387.884 543.532 396.786C529.969 408.645 515.539 419.38 499.92 428.507C479.608 440.399 458.011 448.658 434.839 452.836C433.232 453.126 431.592 453.254 430.05 452.579L430.082 452.611Z" fill="#2A2A32"/>
<path d="M280.186 449.815C272.859 442.905 267.106 434.646 261.064 426.675C256.564 420.762 251.872 414.945 248.305 408.356C252.29 411.313 254.636 415.619 257.593 419.412C264.695 428.571 271.702 437.795 278.74 446.987C279.383 447.855 280.154 448.626 280.219 449.783L280.186 449.815Z" fill="#452899"/>
<path d="M580.845 352.113C577.824 349.06 575.157 345.75 572.714 342.247C574.578 342.729 576.41 343.532 578.306 342.407C577.824 346.007 579.463 349.028 580.877 352.113H580.845Z" fill="#33313F"/>
<path d="M285.007 455.536C283.047 453.929 280.99 452.386 280.186 449.815C282.243 451.358 284.332 452.836 285.007 455.536Z" fill="#452899"/>
<path d="M436.928 286.036C431.464 288.896 427.254 292.078 424.49 296.706C416.262 310.461 425.647 330.355 442.038 334.115C453.575 336.751 464.438 331.223 469.388 320.264C469.87 319.203 469.709 317.371 471.091 317.275C472.634 317.178 472.923 319.01 473.534 320.135C495.709 361.337 471.188 413.338 424.779 423.59C378.081 433.906 334.115 397.654 335.658 349.896C336.719 317.917 362.365 285.714 398.264 280.99C411.313 279.287 423.879 280.476 436.895 286.004L436.928 286.036Z" fill="url(#paint9_radial_1_39)"/>
<path d="M59.8104 750.827C85.9393 750.827 96.6415 761.305 96.6415 784.766V801.125C96.6415 824.586 85.9393 835.063 59.8104 835.063H3.59955C1.18914 835.063 0 833.874 0 831.464V754.427C0 752.017 1.18914 750.827 3.59955 750.827H59.8104ZM18.287 816.551C18.287 817.644 18.7691 818.126 19.8618 818.126H59.3283C73.5337 818.126 78.3545 813.787 78.3545 799.582V786.341C78.3545 772.136 73.5337 767.797 59.3283 767.797H19.8618C18.7691 767.797 18.287 768.279 18.287 769.372V816.551Z" fill="url(#paint10_linear_1_39)"/>
<path d="M139.386 750.828C141.186 750.828 142.022 751.663 142.022 753.463V832.396C142.022 834.196 141.186 835.031 139.386 835.031H126.402C124.602 835.031 123.767 834.196 123.767 832.396V753.463C123.767 751.663 124.602 750.828 126.402 750.828H139.386Z" fill="url(#paint11_linear_1_39)"/>
<path d="M223.493 750.828C229.761 750.828 233.36 752.627 237.345 759.987L277.165 832.332C278.001 834.003 277.647 835.096 275.719 835.096H260.421C258.846 835.096 258.139 834.742 257.657 833.649L249.719 818.962H192.062L184.252 833.649C183.641 834.742 183.063 835.096 181.488 835.096H165.708C163.78 835.096 163.426 834.003 164.262 832.332L203.728 759.987C207.585 752.659 211.313 750.828 216.359 750.828H223.461H223.493ZM241.17 803.31L222.529 768.761C222.176 768.15 221.694 767.925 221.083 767.925H220.376C219.765 767.925 219.412 768.15 219.058 768.761L200.514 803.31H241.202H241.17Z" fill="url(#paint12_linear_1_39)"/>
<path d="M383.095 750.828C384.766 750.828 385.73 751.663 385.73 753.463V765.129C385.73 766.801 384.766 767.765 383.095 767.765H322.803C318.464 767.765 316.439 769.822 316.439 774.257V778.338C316.439 782.677 318.367 784.477 322.803 784.477H367.797C381.263 784.477 388.848 792.19 388.848 805.656V815.395C388.848 827.8 381.392 834.999 367.54 834.999H300.852C299.052 834.999 298.216 834.164 298.216 832.364V820.697C298.216 819.026 299.052 818.062 300.852 818.062H364.037C368.247 818.062 370.4 816.005 370.4 811.57V806.621C370.4 802.282 368.6 800.482 364.133 800.482H319.01C305.544 800.482 298.056 792.769 298.056 779.303V770.4C298.056 757.995 305.383 750.795 319.235 750.795H383.031L383.095 750.828Z" fill="url(#paint13_linear_1_39)"/>
<path d="M430.403 750.828C432.203 750.828 433.039 751.663 433.039 753.463V832.396C433.039 834.196 432.203 835.031 430.403 835.031H417.419C415.62 835.031 414.784 834.196 414.784 832.396V753.463C414.784 751.663 415.62 750.828 417.419 750.828H430.403Z" fill="url(#paint14_linear_1_39)"/>
<path d="M554.845 750.828C556.516 750.828 557.48 751.663 557.48 753.463V765.258C557.48 767.058 556.516 767.893 554.845 767.893H494.552C482.147 767.893 478.547 771.621 478.547 784.381V801.703C478.547 814.462 482.147 818.062 494.552 818.062H534.276C538.486 818.062 540.286 816.262 540.286 810.831V801.928C540.286 800.739 539.804 800.257 538.84 800.257H503.583C501.912 800.257 500.948 799.421 500.948 797.622V787.016C500.948 785.345 501.912 784.381 503.583 784.381H553.752C556.163 784.381 557.352 785.57 557.352 787.98V816.616C557.352 830.082 552.177 835.031 542.439 835.031H493.942C469.516 835.031 460.26 826.354 460.26 803.246V782.549C460.26 759.441 469.516 750.763 493.942 750.763H554.845V750.828Z" fill="url(#paint15_linear_1_39)"/>
<path d="M674.948 750.828C676.748 750.828 677.712 751.663 677.712 753.463V832.396C677.712 834.196 676.748 835.031 674.948 835.031H661.964C660.292 835.031 659.328 834.196 659.328 832.396V800.739H602.989V832.396C602.989 834.196 602.153 835.031 600.354 835.031H587.369C585.57 835.031 584.734 834.196 584.734 832.396V753.463C584.734 751.663 585.57 750.828 587.369 750.828H600.354C602.153 750.828 602.989 751.663 602.989 753.463V784.381H659.328V753.463C659.328 751.663 660.292 750.828 661.964 750.828H674.948Z" fill="url(#paint16_linear_1_39)"/>
<path d="M797.236 750.828C799.036 750.828 800 751.663 800 753.463V765.258C800 767.058 799.036 767.893 797.236 767.893H759.312V832.396C759.312 834.196 758.605 835.031 756.773 835.031H743.661C741.989 835.031 741.025 834.196 741.025 832.396V767.893H703.101C701.43 767.893 700.466 767.058 700.466 765.258V753.463C700.466 751.663 701.43 750.828 703.101 750.828H797.204H797.236Z" fill="url(#paint17_linear_1_39)"/>
<path d="M110.59 872.055H114.157L119.01 895.067H119.942L124.795 872.055H130.227L135.08 895.067H136.012L140.865 872.055H144.432L138.647 898.216H132.669L128.009 875.205H127.077L122.417 898.216H116.439L110.654 872.055H110.59Z" fill="url(#paint18_radial_1_39)"/>
<path d="M161.273 898.216V872.055H179.592V875.237H164.647V883.465H176.796V886.646H164.647V895.067H179.592V898.248H161.273V898.216Z" fill="url(#paint19_radial_1_39)"/>
<path d="M218.48 890.76H221.854C222.144 891.692 222.561 892.56 223.204 893.299C224.586 894.97 226.643 895.806 229.343 895.806C231.496 895.806 233.103 895.388 234.228 894.52C235.321 893.685 235.899 892.592 235.899 891.306C235.899 890.214 235.449 889.346 234.549 888.703C233.649 888.06 232.396 887.482 230.725 887.032C230.435 886.936 229.953 886.807 229.278 886.614C228.604 886.453 228.089 886.293 227.736 886.196C227.35 886.1 226.868 885.939 226.225 885.746C225.583 885.554 225.1 885.361 224.715 885.2C224.329 885.039 223.879 884.814 223.365 884.557C222.851 884.3 222.433 884.043 222.112 883.786C221.79 883.529 221.469 883.24 221.115 882.854C220.762 882.468 220.472 882.115 220.28 881.697C220.087 881.311 219.926 880.861 219.798 880.347C219.669 879.833 219.605 879.319 219.605 878.74C219.605 876.683 220.472 874.948 222.176 873.469C223.911 871.991 226.161 871.252 228.957 871.252C232.653 871.252 235.449 872.473 237.345 874.916C238.149 875.976 238.727 877.197 239.081 878.547H235.706C235.481 877.84 235.096 877.165 234.517 876.49C233.135 875.108 231.303 874.434 228.989 874.434C227.125 874.434 225.647 874.851 224.586 875.687C223.526 876.523 223.011 877.551 223.011 878.74C223.011 879.319 223.172 879.833 223.493 880.315C223.815 880.797 224.201 881.183 224.65 881.504C225.1 881.825 225.743 882.115 226.547 882.436C227.35 882.758 228.089 882.982 228.7 883.175C229.311 883.336 230.146 883.561 231.175 883.818C232.332 884.107 233.328 884.461 234.196 884.814C235.063 885.2 235.931 885.65 236.735 886.229C237.57 886.807 238.181 887.514 238.631 888.35C239.081 889.185 239.274 890.182 239.274 891.274C239.274 893.428 238.374 895.227 236.606 896.706C234.839 898.184 232.428 898.923 229.343 898.923C225.325 898.923 222.336 897.541 220.344 894.81C219.476 893.653 218.865 892.271 218.512 890.696L218.48 890.76Z" fill="url(#paint20_radial_1_39)"/>
<path d="M256.596 898.216V872.055H274.916V875.237H259.971V883.465H272.12V886.646H259.971V895.067H274.916V898.248H256.596V898.216Z" fill="url(#paint21_radial_1_39)"/>
<path d="M292.142 898.216V872.055H310.461V875.237H295.517V883.465H307.665V886.646H295.517V895.067H310.461V898.248H292.142V898.216Z" fill="url(#paint22_radial_1_39)"/>
<path d="M346.36 875.237V872.055H367.668V875.237H358.702V898.248H355.327V875.237H346.36Z" fill="url(#paint23_radial_1_39)"/>
<path d="M383.738 898.216V872.055H387.112V883.465H401.125V872.055H404.499V898.216H401.125V886.614H387.112V898.216H383.738Z" fill="url(#paint24_radial_1_39)"/>
<path d="M423.204 898.216V872.055H441.523V875.237H426.579V883.465H438.727V886.646H426.579V895.067H441.523V898.248H423.204V898.216Z" fill="url(#paint25_radial_1_39)"/>
<path d="M481.697 888.318V872.055H485.071V888.318C485.071 890.599 485.714 892.431 486.968 893.781C488.221 895.131 489.924 895.806 491.981 895.806C494.038 895.806 495.709 895.131 496.995 893.781C498.281 892.431 498.891 890.599 498.891 888.318V872.055H502.266V888.318C502.266 891.564 501.334 894.135 499.438 896.063C497.541 897.991 495.067 898.955 491.981 898.955C488.896 898.955 486.389 897.991 484.525 896.063C482.629 894.135 481.697 891.531 481.697 888.318Z" fill="url(#paint26_radial_1_39)"/>
<path d="M520.778 898.216V872.055H525.631L538.486 894.103H538.551V893.717L538.518 872.023H541.893V898.184H537.04L524.185 876.137H524.12V876.523L524.152 898.184H520.778V898.216Z" fill="url(#paint27_radial_1_39)"/>
<path d="M559.119 890.76H562.494C562.783 891.692 563.201 892.56 563.844 893.299C565.226 894.97 567.283 895.806 569.982 895.806C572.136 895.806 573.743 895.388 574.867 894.52C575.96 893.685 576.539 892.592 576.539 891.306C576.539 890.214 576.089 889.346 575.189 888.703C574.289 888.06 573.035 887.482 571.364 887.032C571.075 886.936 570.593 886.807 569.918 886.614C569.243 886.453 568.729 886.293 568.375 886.196C567.99 886.1 567.508 885.939 566.865 885.746C566.222 885.554 565.74 885.361 565.354 885.2C564.969 885.039 564.519 884.814 564.005 884.557C563.49 884.3 563.072 884.043 562.751 883.786C562.43 883.529 562.108 883.24 561.755 882.854C561.401 882.468 561.112 882.115 560.919 881.697C560.726 881.311 560.566 880.861 560.437 880.347C560.309 879.833 560.244 879.319 560.244 878.74C560.244 876.683 561.112 874.948 562.815 873.469C564.551 871.991 566.801 871.252 569.597 871.252C573.293 871.252 576.089 872.473 577.985 874.916C578.788 875.976 579.367 877.197 579.72 878.547H576.346C576.121 877.84 575.735 877.165 575.157 876.49C573.775 875.108 571.943 874.434 569.629 874.434C567.765 874.434 566.286 874.851 565.226 875.687C564.165 876.523 563.651 877.551 563.651 878.74C563.651 879.319 563.812 879.833 564.133 880.315C564.454 880.797 564.84 881.183 565.29 881.504C565.74 881.825 566.383 882.115 567.186 882.436C567.99 882.758 568.729 882.982 569.34 883.175C569.95 883.336 570.786 883.561 571.814 883.818C572.971 884.107 573.968 884.461 574.835 884.814C575.703 885.2 576.571 885.65 577.374 886.229C578.21 886.807 578.821 887.514 579.27 888.35C579.72 889.185 579.913 890.182 579.913 891.274C579.913 893.428 579.013 895.227 577.246 896.706C575.478 898.184 573.068 898.923 569.982 898.923C565.965 898.923 562.976 897.541 560.983 894.81C560.116 893.653 559.505 892.271 559.152 890.696L559.119 890.76Z" fill="url(#paint28_radial_1_39)"/>
<path d="M597.236 898.216V872.055H615.555V875.237H600.611V883.465H612.759V886.646H600.611V895.067H615.555V898.248H597.236V898.216Z" fill="url(#paint29_radial_1_39)"/>
<path d="M632.749 898.216V872.055H651.069V875.237H636.124V883.465H648.273V886.646H636.124V895.067H651.069V898.248H632.749V898.216Z" fill="url(#paint30_radial_1_39)"/>
<path d="M668.295 898.216V872.055H673.148L686.003 894.103H686.068V893.717L686.036 872.023H689.41V898.184H684.557L671.702 876.137H671.637V876.523L671.67 898.184H668.295V898.216Z" fill="url(#paint31_radial_1_39)"/>
</g>
<defs>
<radialGradient id="paint0_radial_1_39" cx="0" cy="0" r="1" gradientUnits="userSpaceOnUse" gradientTransform="translate(411.666 346.979) scale(319.251 319.251)">
<stop offset="0.02" stop-color="#361A86"/>
<stop offset="0.11" stop-color="#31177E"/>
<stop offset="0.36" stop-color="#27126D"/>
<stop offset="0.64" stop-color="#200F64"/>
<stop offset="1" stop-color="#1F0F61"/>
</radialGradient>
<linearGradient id="paint1_linear_1_39" x1="246.28" y1="543.275" x2="627.318" y2="543.275" gradientUnits="userSpaceOnUse">
<stop offset="0.02" stop-color="#391E89"/>
<stop offset="0.53" stop-color="#482A9B"/>
<stop offset="1" stop-color="#5333A9"/>
</linearGradient>
<linearGradient id="paint2_linear_1_39" x1="171.268" y1="449.655" x2="294.199" y2="139.225" gradientUnits="userSpaceOnUse">
<stop offset="0.02" stop-color="#6848C1"/>
<stop offset="0.03" stop-color="#6747C0"/>
<stop offset="0.66" stop-color="#482A9E"/>
<stop offset="1" stop-color="#3D2091"/>
</linearGradient>
<linearGradient id="paint3_linear_1_39" x1="430.243" y1="411.666" x2="867.331" y2="362.012" gradientUnits="userSpaceOnUse">
<stop offset="0.02" stop-color="#3A208E"/>
<stop offset="0.62" stop-color="#5538AA"/>
<stop offset="1" stop-color="#6243B8"/>
</linearGradient>
<linearGradient id="paint4_linear_1_39" x1="499.405" y1="70.0948" x2="588.816" y2="265.049" gradientUnits="userSpaceOnUse">
<stop offset="0.02" stop-color="#6140B7"/>
<stop offset="0.53" stop-color="#4F2EA4"/>
<stop offset="1" stop-color="#432397"/>
</linearGradient>
<linearGradient id="paint5_linear_1_39" x1="112.261" y1="465.595" x2="327.72" y2="465.595" gradientUnits="userSpaceOnUse">
<stop offset="0.02" stop-color="#5433AB"/>
<stop offset="0.55" stop-color="#422596"/>
<stop offset="1" stop-color="#371D89"/>
</linearGradient>
<linearGradient id="paint6_linear_1_39" x1="463.956" y1="188.141" x2="178.338" y2="54.0254" gradientUnits="userSpaceOnUse">
<stop offset="0.02" stop-color="#48289F"/>
<stop offset="0.12" stop-color="#4D2EA4"/>
<stop offset="0.69" stop-color="#6C50C3"/>
<stop offset="1" stop-color="#785ECF"/>
</linearGradient>
<linearGradient id="paint7_linear_1_39" x1="315.121" y1="413.37" x2="560.983" y2="612.663" gradientUnits="userSpaceOnUse">
<stop offset="0.02" stop-color="#48289F"/>
<stop offset="0.12" stop-color="#4D2EA4"/>
<stop offset="0.69" stop-color="#6C50C3"/>
<stop offset="1" stop-color="#785ECF"/>
</linearGradient>
<linearGradient id="paint8_linear_1_39" x1="316.086" y1="166.479" x2="576.796" y2="166.479" gradientUnits="userSpaceOnUse">
<stop offset="0.02" stop-color="#5433AB"/>
<stop offset="0.55" stop-color="#422596"/>
<stop offset="1" stop-color="#371D89"/>
</linearGradient>
<radialGradient id="paint9_radial_1_39" cx="0" cy="0" r="1" gradientUnits="userSpaceOnUse" gradientTransform="translate(408.086 352.217) scale(72.6569 72.6569)">
<stop offset="0.02" stop-color="#361A86"/>
<stop offset="0.11" stop-color="#31177E"/>
<stop offset="0.36" stop-color="#27126D"/>
<stop offset="0.64" stop-color="#200F64"/>
<stop offset="1" stop-color="#1F0F61"/>
</radialGradient>
<linearGradient id="paint10_linear_1_39" x1="0" y1="792.929" x2="96.6415" y2="792.929" gradientUnits="userSpaceOnUse">
<stop offset="0.02" stop-color="#391E89"/>
<stop offset="0.53" stop-color="#482A9B"/>
<stop offset="1" stop-color="#5333A9"/>
</linearGradient>
<linearGradient id="paint11_linear_1_39" x1="123.735" y1="792.929" x2="142.022" y2="792.929" gradientUnits="userSpaceOnUse">
<stop offset="0.02" stop-color="#391E89"/>
<stop offset="0.53" stop-color="#482A9B"/>
<stop offset="1" stop-color="#5333A9"/>
</linearGradient>
<linearGradient id="paint12_linear_1_39" x1="163.876" y1="792.929" x2="277.615" y2="792.929" gradientUnits="userSpaceOnUse">
<stop offset="0.02" stop-color="#391E89"/>
<stop offset="0.53" stop-color="#482A9B"/>
<stop offset="1" stop-color="#5333A9"/>
</linearGradient>
<linearGradient id="paint13_linear_1_39" x1="298.12" y1="792.929" x2="388.88" y2="792.929" gradientUnits="userSpaceOnUse">
<stop offset="0.02" stop-color="#391E89"/>
<stop offset="0.53" stop-color="#482A9B"/>
<stop offset="1" stop-color="#5333A9"/>
</linearGradient>
<linearGradient id="paint14_linear_1_39" x1="414.752" y1="792.929" x2="433.039" y2="792.929" gradientUnits="userSpaceOnUse">
<stop offset="0.02" stop-color="#391E89"/>
<stop offset="0.53" stop-color="#482A9B"/>
<stop offset="1" stop-color="#5333A9"/>
</linearGradient>
<linearGradient id="paint15_linear_1_39" x1="460.26" y1="792.929" x2="557.48" y2="792.929" gradientUnits="userSpaceOnUse">
<stop offset="0.02" stop-color="#391E89"/>
<stop offset="0.53" stop-color="#482A9B"/>
<stop offset="1" stop-color="#5333A9"/>
</linearGradient>
<linearGradient id="paint16_linear_1_39" x1="584.702" y1="792.929" x2="677.744" y2="792.929" gradientUnits="userSpaceOnUse">
<stop offset="0.02" stop-color="#391E89"/>
<stop offset="0.53" stop-color="#482A9B"/>
<stop offset="1" stop-color="#5333A9"/>
</linearGradient>
<linearGradient id="paint17_linear_1_39" x1="700.498" y1="792.929" x2="800" y2="792.929" gradientUnits="userSpaceOnUse">
<stop offset="0.02" stop-color="#391E89"/>
<stop offset="0.53" stop-color="#482A9B"/>
<stop offset="1" stop-color="#5333A9"/>
</linearGradient>
<radialGradient id="paint18_radial_1_39" cx="0" cy="0" r="1" gradientUnits="userSpaceOnUse" gradientTransform="translate(127.37 883.365) scale(15.0988 15.0989)">
<stop offset="0.02" stop-color="#361A86"/>
<stop offset="0.11" stop-color="#31177E"/>
<stop offset="0.36" stop-color="#27126D"/>
<stop offset="0.64" stop-color="#200F64"/>
<stop offset="1" stop-color="#1F0F61"/>
</radialGradient>
<radialGradient id="paint19_radial_1_39" cx="0" cy="0" r="1" gradientUnits="userSpaceOnUse" gradientTransform="translate(170.178 883.365) scale(11.2682 11.2682)">
<stop offset="0.02" stop-color="#361A86"/>
<stop offset="0.11" stop-color="#31177E"/>
<stop offset="0.36" stop-color="#27126D"/>
<stop offset="0.64" stop-color="#200F64"/>
<stop offset="1" stop-color="#1F0F61"/>
</radialGradient>
<radialGradient id="paint20_radial_1_39" cx="0" cy="0" r="1" gradientUnits="userSpaceOnUse" gradientTransform="translate(228.476 883.365) scale(12.1909 12.1909)">
<stop offset="0.02" stop-color="#361A86"/>
<stop offset="0.11" stop-color="#31177E"/>
<stop offset="0.36" stop-color="#27126D"/>
<stop offset="0.64" stop-color="#200F64"/>
<stop offset="1" stop-color="#1F0F61"/>
</radialGradient>
<radialGradient id="paint21_radial_1_39" cx="0" cy="0" r="1" gradientUnits="userSpaceOnUse" gradientTransform="translate(265.329 883.365) scale(11.2682 11.2682)">
<stop offset="0.02" stop-color="#361A86"/>
<stop offset="0.11" stop-color="#31177E"/>
<stop offset="0.36" stop-color="#27126D"/>
<stop offset="0.64" stop-color="#200F64"/>
<stop offset="1" stop-color="#1F0F61"/>
</radialGradient>
<radialGradient id="paint22_radial_1_39" cx="0" cy="0" r="1" gradientUnits="userSpaceOnUse" gradientTransform="translate(300.783 883.365) scale(11.2682 11.2682)">
<stop offset="0.02" stop-color="#361A86"/>
<stop offset="0.11" stop-color="#31177E"/>
<stop offset="0.36" stop-color="#27126D"/>
<stop offset="0.64" stop-color="#200F64"/>
<stop offset="1" stop-color="#1F0F61"/>
</radialGradient>
<radialGradient id="paint23_radial_1_39" cx="0" cy="0" r="1" gradientUnits="userSpaceOnUse" gradientTransform="translate(356.369 883.365) scale(11.9113 11.9113)">
<stop offset="0.02" stop-color="#361A86"/>
<stop offset="0.11" stop-color="#31177E"/>
<stop offset="0.36" stop-color="#27126D"/>
<stop offset="0.64" stop-color="#200F64"/>
<stop offset="1" stop-color="#1F0F61"/>
</radialGradient>
<radialGradient id="paint24_radial_1_39" cx="0" cy="0" r="1" gradientUnits="userSpaceOnUse" gradientTransform="translate(393.389 883.365) scale(11.7715 11.7715)">
<stop offset="0.02" stop-color="#361A86"/>
<stop offset="0.11" stop-color="#31177E"/>
<stop offset="0.36" stop-color="#27126D"/>
<stop offset="0.64" stop-color="#200F64"/>
<stop offset="1" stop-color="#1F0F61"/>
</radialGradient>
<radialGradient id="paint25_radial_1_39" cx="0" cy="0" r="1" gradientUnits="userSpaceOnUse" gradientTransform="translate(431.556 883.365) scale(11.2682 11.2682)">
<stop offset="0.02" stop-color="#361A86"/>
<stop offset="0.11" stop-color="#31177E"/>
<stop offset="0.36" stop-color="#27126D"/>
<stop offset="0.64" stop-color="#200F64"/>
<stop offset="1" stop-color="#1F0F61"/>
</radialGradient>
<radialGradient id="paint26_radial_1_39" cx="0" cy="0" r="1" gradientUnits="userSpaceOnUse" gradientTransform="translate(491.056 883.756) scale(11.9392 11.9393)">
<stop offset="0.02" stop-color="#361A86"/>
<stop offset="0.11" stop-color="#31177E"/>
<stop offset="0.36" stop-color="#27126D"/>
<stop offset="0.64" stop-color="#200F64"/>
<stop offset="1" stop-color="#1F0F61"/>
</radialGradient>
<radialGradient id="paint27_radial_1_39" cx="0" cy="0" r="1" gradientUnits="userSpaceOnUse" gradientTransform="translate(530.341 883.365) scale(11.8554 11.8554)">
<stop offset="0.02" stop-color="#361A86"/>
<stop offset="0.11" stop-color="#31177E"/>
<stop offset="0.36" stop-color="#27126D"/>
<stop offset="0.64" stop-color="#200F64"/>
<stop offset="1" stop-color="#1F0F61"/>
</radialGradient>
<radialGradient id="paint28_radial_1_39" cx="0" cy="0" r="1" gradientUnits="userSpaceOnUse" gradientTransform="translate(568.396 883.365) scale(12.1909 12.1909)">
<stop offset="0.02" stop-color="#361A86"/>
<stop offset="0.11" stop-color="#31177E"/>
<stop offset="0.36" stop-color="#27126D"/>
<stop offset="0.64" stop-color="#200F64"/>
<stop offset="1" stop-color="#1F0F61"/>
</radialGradient>
<radialGradient id="paint29_radial_1_39" cx="0" cy="0" r="1" gradientUnits="userSpaceOnUse" gradientTransform="translate(605.22 883.365) scale(11.2682 11.2682)">
<stop offset="0.02" stop-color="#361A86"/>
<stop offset="0.11" stop-color="#31177E"/>
<stop offset="0.36" stop-color="#27126D"/>
<stop offset="0.64" stop-color="#200F64"/>
<stop offset="1" stop-color="#1F0F61"/>
</radialGradient>
<radialGradient id="paint30_radial_1_39" cx="0" cy="0" r="1" gradientUnits="userSpaceOnUse" gradientTransform="translate(640.674 883.365) scale(11.2682 11.2682)">
<stop offset="0.02" stop-color="#361A86"/>
<stop offset="0.11" stop-color="#31177E"/>
<stop offset="0.36" stop-color="#27126D"/>
<stop offset="0.64" stop-color="#200F64"/>
<stop offset="1" stop-color="#1F0F61"/>
</radialGradient>
<radialGradient id="paint31_radial_1_39" cx="0" cy="0" r="1" gradientUnits="userSpaceOnUse" gradientTransform="translate(677.527 883.365) scale(11.8554 11.8554)">
<stop offset="0.02" stop-color="#361A86"/>
<stop offset="0.11" stop-color="#31177E"/>
<stop offset="0.36" stop-color="#27126D"/>
<stop offset="0.64" stop-color="#200F64"/>
<stop offset="1" stop-color="#1F0F61"/>
</radialGradient>
<clipPath id="clip0_1_39">
<rect width="800" height="898.988" fill="white"/>
</clipPath>
</defs>
</svg>
